<svg width="128" height="128" viewBox="0 0 128 128" fill="none" xmlns="http://www.w3.org/2000/svg">
<path d="M60.9899 15.4C61.5401 16.1619 61.8279 17.082 61.8099 18.0217C61.7918 18.9614 61.469 19.8697 60.8899 20.61C57.5599 24.87 50.4999 33.4 43.4799 38.58C34.8199 44.98 26.9299 47.85 22.9099 49.02C21.1299 49.54 19.2299 48.85 18.1599 47.34C15.5199 43.63 11.3199 35.68 12.9699 24.43C15.2999 8.42999 33.6299 0.709992 45.5099 4.54999C57.3899 8.38999 60.9899 15.4 60.9899 15.4Z" fill="#FFC107"/>
<path d="M24.5 46.03C23.33 46.52 22.27 45.15 23.02 44.14C25.22 41.2 29.49 36.38 37.28 30.1C45.73 23.29 51.72 20.88 54.99 20.03C56.12 19.74 56.99 21.01 56.31 21.96C54.1 25.06 49.45 30.72 41.84 36.15C34.46 41.42 28.2 44.47 24.5 46.03V46.03Z" fill="url(#paint0_radial)"/>
<path d="M32.7299 8.74C33.1899 10.72 35.6899 11.41 38.1099 11C40.7299 10.56 44.0299 10.19 43.7199 7.53C43.3999 4.78 39.0199 4.89 37.3999 4.98C35.0299 5.12 32.3199 6.99 32.7299 8.74V8.74Z" fill="#FFEE58"/>
<path d="M84.2499 3.72001C96.2099 0.500009 113.77 4.62001 117.29 25.34C118.63 33.21 115.5 40.18 113.31 43.9C112.23 45.74 110.12 46.72 108.03 46.3C103.95 45.48 96.3499 43.19 86.1699 36.83C80.5099 33.3 72.8099 26.42 68.4499 22.37C66.4799 20.54 66.2899 17.47 68.0599 15.44C71.5199 11.47 77.6099 5.51001 84.2499 3.72001V3.72001Z" fill="#FFC107"/>
<path d="M73.4199 22.5C72.7899 21.87 73.3899 20.81 74.2599 21.03C78.0799 21.99 85.1299 24.14 91.3899 28.05C97.8099 32.07 104.3 38.18 107.59 41.45C108.24 42.09 107.6 43.17 106.72 42.91C102.7 41.74 95.3099 39.14 87.9999 34.21C80.5699 29.2 75.8399 24.91 73.4199 22.5V22.5Z" fill="url(#paint1_radial)"/>
<path d="M83.5901 11.84C79.6401 13.08 78.5301 10.29 80.6401 8.16999C82.1601 6.63999 88.5701 3.90999 94.1301 5.06999C97.8001 5.83999 98.9501 11.13 93.7801 11.06C90.2601 11.01 88.4301 10.32 83.5901 11.84Z" fill="#FFEE58"/>
<path d="M110.02 120.05C97.57 112.22 89.23 96.97 87.71 79.25C86.34 63.24 90.22 47.03 93.34 34.01L99.74 36.92C96.76 49.38 94.42 63.84 95.68 78.56C96.98 93.79 103.94 106.77 114.28 113.27L110.02 120.05V120.05Z" fill="#03A9F4"/>
<path d="M60.5801 117.29L57.2801 110C61.1901 108.23 63.4501 103.1 62.1101 99.03C61.4601 97.04 60.0601 95.14 58.5901 93.13C57.3901 91.49 56.1401 89.79 55.1201 87.84C52.4601 82.74 51.8301 76.64 53.4101 71.11C54.2101 68.32 55.4801 65.85 56.7201 63.46C58.1201 60.76 59.4301 58.22 59.7701 55.66C60.0801 53.29 59.5201 50.78 58.2201 48.77C57.0401 46.96 55.2201 45.4 53.2901 43.76C51.8301 42.51 50.3101 41.22 48.9201 39.7C45.6301 36.1 44.3501 31.81 44.3701 27.02L49.9401 24.91C49.9401 24.91 50.9501 30.35 52.3101 32.52C53.7401 34.79 55.8701 36.33 57.8901 38.05C60.1701 40 63.1201 41.63 64.9301 44.43C67.2501 48.01 68.2601 52.49 67.7001 56.73C67.1801 60.67 65.4701 63.97 63.8201 67.16C62.7201 69.29 61.6801 71.3 61.1001 73.33C60.0801 76.91 60.4801 80.86 62.2101 84.16C62.9501 85.58 63.9601 86.96 65.0401 88.43C66.8201 90.86 68.6601 93.36 69.7101 96.56C72.3401 104.51 68.2401 113.83 60.5801 117.29V117.29Z" fill="#03A9F4"/>
<path d="M10.51 123.31L5.78003 116.86C36.11 94.64 39.34 62.1 37.2 45.52L43.24 43.67C45.61 62 44.15 98.67 10.51 123.31V123.31Z" fill="#F48FB1"/>
<path d="M94.9201 73.36L95.4501 73.77C95.3901 70.48 95.5501 67.17 95.8601 63.89C93.1801 61.66 90.6801 59.27 88.8801 56.47C88.8301 56.39 88.7901 56.31 88.7401 56.23C88.2001 59.83 87.7801 63.51 87.5801 67.22C89.9701 69.51 92.5301 71.51 94.9201 73.36V73.36Z" fill="#0076C6"/>
<path d="M114.93 95.35L107.67 91.98C109.52 88 107.97 83.19 105.91 80.02C103.23 75.9 99.0101 72.62 94.9201 69.45C90.5301 66.05 85.5601 62.2 82.1401 56.87C75.8501 47.08 76.9601 34.89 84.0501 25.66L89.8601 28.91C84.7601 35.56 84.3501 45.49 88.8701 52.54C91.5401 56.71 95.7501 59.96 99.8201 63.12C104.22 66.53 109.2 70.39 112.62 75.65C116.74 82 117.63 89.55 114.93 95.35Z" fill="#F44336"/>
<path d="M8.99007 92.59C7.49007 84.11 13.6901 79.72 17.0201 77.36C17.4201 77.08 17.9101 76.73 18.2501 76.46C18.2201 75.75 17.7401 74.86 16.8401 73.35C15.3601 70.86 13.3401 67.44 14.8901 63.09C16.2401 59.31 20.1601 58.06 22.7601 56.6C24.9801 55.35 26.5901 53.83 27.3901 51.29C28.3201 48.33 27.6701 40.89 27.6701 40.89L32.5501 38.04C32.5501 38.04 34.0901 45.15 34.0901 48.77C34.0901 59.03 28.4001 61.65 26.0001 63C24.3401 63.93 22.7701 64.81 22.4301 65.77C22.1801 66.47 22.5301 67.26 23.7301 69.28C25.1701 71.7 27.1301 75.03 25.8501 79.28C25.2301 81.35 23.4901 82.59 21.6501 83.89C18.3901 86.2 16.2901 87.96 16.8701 91.2L8.99007 92.59V92.59Z" fill="#F44336"/>
<path d="M75.0499 82.26C71.4899 81.41 69.0599 79.29 66.8799 77.49L71.9799 71.32C71.9799 71.32 73.7899 74.01 77.7599 75.25L75.0499 82.26V82.26Z" fill="#F44336"/>
<path d="M68.63 37.24L62.72 33.77L67 27L72.92 30.47L68.63 37.24Z" fill="#F44336"/>
<path d="M83.97 113.56L76 108.61L82.15 101.77L88.3 107.61L83.97 113.56Z" fill="#F44336"/>
<path d="M109.207 60.167L113.897 53.686L120.857 58.722L116.166 65.203L109.207 60.167Z" fill="#FB8C00"/>
<path d="M52.8901 57.06L45.8301 52.18L49.5001 47.31L56.5501 52.19L52.8901 57.06Z" fill="#F44336"/>
<path d="M61.4299 65.59C61.4299 65.59 62.7899 65.54 64.4799 65.87C65.6999 63.47 66.8599 60.97 67.4599 58.16C65.3799 57.69 63.7099 57.92 63.7099 57.92L61.4299 65.59V65.59Z" fill="#0076C6"/>
<path d="M70.92 66.53C68.13 64.15 63.47 64.32 63.47 64.32L65.74 56.65C65.74 56.65 70.9 55.93 74.38 59.56L70.92 66.53Z" fill="#FB8C00"/>
<path d="M4.64111 98.305L11.8971 97.862L12.3841 105.847L5.12811 106.29L4.64111 98.305Z" fill="#FB8C00"/>
<path d="M43.1701 96.91L38.5601 90.37C40.6001 88.93 42.4701 87.22 44.0901 85.31L50.1901 90.49C48.127 92.9145 45.7687 95.0712 43.1701 96.91Z" fill="#FB8C00"/>
<path d="M43.2299 115.39C40.8299 113.41 38.2899 111.57 35.6699 109.91L39.9499 103.15C42.8499 104.98 45.6599 107.02 48.3199 109.21L43.2299 115.39V115.39Z" fill="#F44336"/>
<path d="M87.8501 80.09C88.1301 83.4 88.5201 85.78 89.2601 88.88L94.5301 84.65L89.4001 78.24L87.8501 80.09V80.09Z" fill="#0076C6"/>
<path d="M79.3701 85.194L87.4301 78.733L92.4341 84.974L84.3741 91.436L79.3701 85.194Z" fill="#FFC107"/>
<path d="M76.62 125.26C75.22 122.69 73.65 120.18 71.95 117.8L78.46 113.15C80.3566 115.803 82.0866 118.572 83.64 121.44L76.62 125.26V125.26Z" fill="#FB8C00"/>
<defs>
<radialGradient id="paint0_radial" cx="0" cy="0" r="1" gradientUnits="userSpaceOnUse" gradientTransform="translate(39.662 33.066) scale(15.102)">
<stop offset="0.376" stop-color="#AF5700"/>
<stop offset="1" stop-color="#8F4700"/>
</radialGradient>
<radialGradient id="paint1_radial" cx="0" cy="0" r="1" gradientUnits="userSpaceOnUse" gradientTransform="translate(90.5009 31.97) scale(21.224)">
<stop offset="0.376" stop-color="#AF5700"/>
<stop offset="1" stop-color="#8F4700"/>
</radialGradient>
</defs>
</svg>
