<svg width="15" height="15" viewBox="0 0 15 15" fill="none" xmlns="http://www.w3.org/2000/svg">
<path d="M8.4 0C6.17218 0 4.03561 0.884998 2.4603 2.4603C0.884998 4.03561 0 6.17218 0 8.4C0 10.6278 0.884998 12.7644 2.4603 14.3397C4.03561 15.915 6.17218 16.8 8.4 16.8C10.6278 16.8 12.7644 15.915 14.3397 14.3397C15.915 12.7644 16.8 10.6278 16.8 8.4C16.8 6.17218 15.915 4.03561 14.3397 2.4603C12.7644 0.884998 10.6278 0 8.4 0V0ZM13.189 11.461L11.46 13.19L8.4 10.129L5.339 13.189L3.61 11.46L6.672 8.4L3.611 5.339L5.34 3.611L8.4 6.671L11.461 3.61L13.19 5.339L10.128 8.4L13.189 11.461Z" fill="black"/>
</svg>
