<svg width="768" height="120" viewBox="0 0 768 120" fill="none" xmlns="http://www.w3.org/2000/svg">
<path d="M0 0H768V153H0V0Z" fill="#002C5F"/>
<path d="M12 84.2723C15.4458 76.4015 26.0828 72.7756 26.0828 66.2314C26.0828 63.4014 24.7345 60.8368 21.2138 60.8368C18.6669 60.8368 17.0189 62.5171 16.1949 65.2586L12.1498 62.6055C13.1236 59.1565 15.8953 55 21.4385 55C27.7308 55 31.3264 59.7755 31.3264 65.7007C31.3264 75.4287 21.5883 78.9661 18.9665 83.2995H31.8508V88.871H12V84.2723Z" fill="white"/>
<path d="M56.9254 71.6964C56.9254 83.125 52.0417 90 44.3881 90C40.0146 90 36.8074 87.4107 35.1309 84.1964L38.6297 80.3571C39.7959 82.5893 41.9098 84.1071 44.3881 84.1071C48.1784 84.1071 51.0941 80.9821 51.6043 74.9107C49.9278 77.1429 47.6682 78.6607 44.5339 78.6607C39.3586 78.6607 34.9851 74.0179 34.9851 66.9643C34.9851 59.9107 39.7959 55 45.6272 55C53.0622 55.0893 56.9254 62.0536 56.9254 71.6964ZM40.2333 66.875C40.2333 70.1786 42.2742 72.9464 45.5544 72.9464C48.8345 72.9464 50.8754 70.1786 50.8754 66.875C50.8754 63.6607 48.8345 60.8929 45.5544 60.8929C42.2014 60.8929 40.2333 63.6607 40.2333 66.875Z" fill="white"/>
<path d="M82 71.6964C82 83.125 77.1163 90 69.4627 90C65.0892 90 61.882 87.4107 60.2055 84.1964L63.7043 80.3571C64.8706 82.5893 66.9844 84.1071 69.4627 84.1071C73.2531 84.1071 76.1687 80.9821 76.6789 74.9107C75.0024 77.1429 72.7428 78.6607 69.6085 78.6607C64.4332 78.6607 60.0597 74.0179 60.0597 66.9643C60.0597 59.9107 64.8706 55 70.7019 55C78.0639 55.0893 82 62.0536 82 71.6964ZM65.235 66.875C65.235 70.1786 67.276 72.9464 70.5561 72.9464C73.8362 72.9464 75.8771 70.1786 75.8771 66.875C75.8771 63.6607 73.8362 60.8929 70.5561 60.8929C67.276 60.8929 65.235 63.6607 65.235 66.875Z" fill="white"/>
<path d="M15.7778 33.5455H16.7963L19.5741 41H18.5556L17.9074 39.0909H14.6667L14.0185 41H13L15.7778 33.5455ZM14.7593 31H15.7778L16.7037 32.6364H15.963L14.7593 31ZM14.8519 38.2727H17.537L16.5185 35.3636C16.3333 34.9091 16.2407 34.5455 16.2407 34.3636C16.2407 34.5455 16.1481 34.9091 15.963 35.3636L14.8519 38.2727Z" fill="white"/>
<path d="M23 35.5454H23.8333V36.3636C24.2037 35.8182 24.8519 35.4545 25.5926 35.4545C27.0741 35.4545 28 36.6363 28 38.2727C28 39.9091 27.0741 41.0909 25.5926 41.0909C24.9444 41.0909 24.2963 40.7273 23.8333 40.2727V43H22.9074V35.5454H23ZM27.0741 38.2727C27.0741 37 26.4259 36.1818 25.4074 36.1818C24.7593 36.1818 24.1111 36.5454 23.8333 37.1818V39.3636C24.1111 39.9091 24.6667 40.3636 25.4074 40.3636C26.4259 40.2727 27.0741 39.5454 27.0741 38.2727Z" fill="white"/>
<path d="M29.0185 39.2727C29.0185 38.2727 29.8518 37.4546 31.0555 37.4546C31.6111 37.4546 32.1667 37.6364 32.6296 38.0909V37.5455C32.6296 36.7273 32.1667 36.1818 31.2407 36.1818C30.5926 36.1818 30.2222 36.4546 29.8518 36.8182L29.3889 36.1818C29.7592 35.7273 30.3148 35.3636 31.3333 35.3636C32.8148 35.3636 33.5555 36.1818 33.5555 37.4546V40.9091H32.6296V40.3637C32.2592 40.8182 31.6111 41 31.0555 41C29.8518 41.0909 29.0185 40.2727 29.0185 39.2727ZM32.6296 39.6364V38.9091C32.3518 38.4546 31.7037 38.2727 31.2407 38.2727C30.3148 38.2727 29.9444 38.8182 29.9444 39.3636C29.9444 39.8182 30.3148 40.4546 31.2407 40.4546C31.7037 40.3637 32.2592 40.1818 32.6296 39.6364Z" fill="white"/>
<path d="M35.2222 35.5454H36.0556V36.5454C36.3334 35.9091 36.8889 35.4545 37.7222 35.4545C37.8148 35.4545 37.9074 35.4545 38 35.4545V36.3636H37.7222C36.9815 36.3636 36.4259 36.7273 36.1482 37.5454V41H35.2222V35.5454V35.5454Z" fill="white"/>
<path d="M39.4815 39.1818V36.2727H38.463V35.5455H39.4815V34.1818H40.3148V35.5455H41.5185V36.2727H40.3148V39.1818C40.3148 39.9091 40.6852 40.1818 41.4259 40.1818H41.6111V40.9091C41.5185 40.9091 41.3333 40.9091 41.2407 40.9091C40.1296 41 39.4815 40.4546 39.4815 39.1818Z" fill="white"/>
<path d="M44.0186 33.1818V34.2727H42.9074V33.1818H44.0186ZM43.926 35.5455V40.9091H43V35.5455H43.926V35.5455Z" fill="white"/>
<path d="M45.6852 35.5454H46.5185V36.5454C46.7963 35.9091 47.3519 35.4545 48.1852 35.4545C48.2778 35.4545 48.3704 35.4545 48.463 35.4545V36.3636H48.1852C47.4445 36.3636 46.8889 36.7273 46.6111 37.5454V41H45.6852V35.5454V35.5454Z" fill="white"/>
<path d="M55.7778 40.1818C55.4074 40.7273 54.7593 41.0909 54.0186 41.0909C52.5371 41.0909 51.6111 39.9091 51.6111 38.2727C51.6111 36.6364 52.5371 35.4546 54.0186 35.4546C54.6667 35.4546 55.3148 35.8182 55.7778 36.2727V33.1818H56.7037V40.9091H55.7778V40.1818ZM55.6852 39.2727V37.0909C55.5 36.5455 54.8519 36.1818 54.2037 36.1818C53.1852 36.1818 52.5371 37 52.5371 38.2727C52.5371 39.5455 53.1852 40.3636 54.2037 40.3636C54.8519 40.2727 55.5 39.9091 55.6852 39.2727Z" fill="white"/>
<path d="M58.0926 38.2727C58.0926 36.5454 59.1111 35.4545 60.5926 35.4545C62.0741 35.4545 63 36.5454 63 38.0909C63 38.2727 63 38.3636 63 38.5454H59.1111C59.2037 39.6363 59.7593 40.3636 60.7778 40.3636C61.4259 40.3636 61.9815 40.0909 62.3518 39.5454L62.9074 40C62.537 40.6363 61.7963 41.0909 60.6852 41.0909C59.0185 41.0909 58.0926 40 58.0926 38.2727ZM59.0185 37.7273H62.0741C61.9815 36.7273 61.4259 36.1818 60.5926 36.1818C59.7593 36.1818 59.2037 36.7273 59.0185 37.7273Z" fill="white"/>
<path d="M87 74.0423H88.4801C89.3682 70.5681 91.5143 68.4084 94.3266 68.4084C96.0287 68.4084 97.5088 69.2535 98.6189 70.9437L97.0648 73.385C96.3987 72.2582 95.5846 71.6009 94.4006 71.6009C92.9944 71.6009 91.9584 72.446 91.3663 74.1361H96.0287V76.953H90.9223C90.9223 77.2347 90.9223 77.5164 90.9223 77.7042C90.9223 77.9859 90.9223 78.2676 90.9223 78.5493H96.0287V81.3662H91.4403C92.0324 83.0563 93.1425 83.8075 94.4746 83.8075C95.6586 83.8075 96.3987 83.1502 97.1388 82.0235L98.6929 84.4648C97.5828 86.1549 96.1027 87 94.4006 87C91.5883 87 89.4422 84.8404 88.5541 81.3662H87.074V78.5493H88.1101C88.1101 78.2676 88.1101 77.9859 88.1101 77.7042C88.1101 77.4225 88.1101 77.1408 88.1101 76.953H87.074V74.0423H87Z" fill="white"/>
<path d="M105.649 68.6902H108.092L101.801 86.4366H99.4329L105.649 68.6902Z" fill="white"/>
<path d="M123.855 78.9249C123.855 76.7652 123.189 75.6385 121.561 75.6385C120.228 75.6385 119.488 76.7652 119.192 77.9859V86.4366H116.602V78.9249C116.602 76.7652 115.862 75.6385 114.308 75.6385C112.976 75.6385 112.236 76.7652 111.94 77.9859V86.4366H109.35V73.0094H111.94V74.8873C112.532 73.6667 113.568 72.7277 115.196 72.7277C116.972 72.7277 118.082 73.6667 118.6 75.2629C119.414 73.6667 120.599 72.7277 122.375 72.7277C125.113 72.7277 126.297 75.169 126.297 78.5493V86.4366H123.707V78.9249H123.855Z" fill="white"/>
<path d="M128.221 79.7699C128.221 76.108 130.145 72.7277 133.846 72.7277C137.546 72.7277 139.47 76.108 139.47 79.7699C139.47 83.4319 137.546 86.8122 133.846 86.8122C130.145 86.8122 128.221 83.4319 128.221 79.7699ZM130.811 79.7699C130.811 82.3052 132.069 83.9014 133.772 83.9014C135.474 83.9014 136.732 82.3052 136.732 79.7699C136.732 77.3286 135.474 75.6385 133.772 75.6385C132.069 75.6385 130.811 77.2347 130.811 79.7699Z" fill="white"/>
<path d="M141.246 67.2817H143.91V70.7559H141.246V67.2817ZM141.32 73.0094H143.91V86.4366H141.32V73.0094Z" fill="white"/>
<path d="M145.464 84.1831L146.871 82.1174C147.537 83.2441 148.795 84.0892 150.053 84.0892C151.163 84.0892 151.977 83.5258 151.977 82.493C151.977 81.6479 151.311 81.2723 150.349 80.9906L149.387 80.8028C147.389 80.4272 146.204 79.0188 146.204 76.7653C146.204 74.4179 147.759 72.5399 150.423 72.5399C152.125 72.5399 153.383 73.385 154.123 74.6056L152.717 76.7653C152.051 75.8263 151.237 75.3568 150.275 75.3568C149.313 75.3568 148.795 75.9202 148.795 76.6714C148.795 77.3286 149.239 77.7042 149.979 77.892L150.941 78.0798C153.383 78.5493 154.567 79.9578 154.567 82.3052C154.567 84.7465 152.865 86.8122 149.905 86.8122C147.981 86.8122 146.5 85.6855 145.464 84.1831Z" fill="white"/>
<path d="M158.341 80.5211C157.157 79.4883 155.677 77.4225 155.677 73.7606C155.677 70.0986 157.157 68.0329 158.341 67L159.007 68.0329C157.823 69.3474 157.083 70.8498 157.083 73.7606C157.083 76.6714 157.897 78.1737 159.007 79.4883L158.341 80.5211Z" fill="white"/>
<path d="M161.154 69.6291L159.673 70.662L159.081 69.1596L161.524 67.4695H162.634V77.7981H161.08V69.6291H161.154Z" fill="white"/>
<path d="M164.336 67C165.52 68.0329 167 70.0986 167 73.7606C167 77.4225 165.52 79.4883 164.336 80.5211L163.67 79.4883C164.854 78.1737 165.594 76.6714 165.594 73.7606C165.594 70.8498 164.78 69.3474 163.67 68.0329L164.336 67Z" fill="white"/>
<path d="M17.8483 106.915H16.2374V100.802L14.6265 101.651L14 100.462L16.6849 99.0188H17.8483V106.915Z" fill="white"/>
<path d="M19.1012 101.226C19.1012 100.038 19.9067 99.3585 20.8911 99.3585C21.8755 99.3585 22.5915 100.123 22.5915 101.141C22.5915 101.226 22.5915 101.396 22.5915 101.481H20.0856C20.1751 101.99 20.4436 102.33 21.0701 102.33C21.5176 102.33 21.786 102.16 21.965 101.821L22.5915 102.33C22.144 102.839 21.6966 103.094 20.9806 103.094C19.9067 103.009 19.1012 102.33 19.1012 101.226ZM20.0856 100.802H21.6966C21.6071 100.292 21.3386 100.038 20.8911 100.038C20.5331 100.038 20.1751 100.292 20.0856 100.802Z" fill="white"/>
<path d="M23.397 102.924V99.3585H24.2919V99.8679C24.4709 99.5283 24.8289 99.2736 25.2764 99.2736C25.3659 99.2736 25.4554 99.2736 25.5449 99.2736V100.123H25.3659C24.9184 100.123 24.5604 100.207 24.3814 100.717V102.924H23.397V102.924Z" fill="white"/>
<path d="M29.2141 98.5094H30.8251V106.915H29.2141V98.5094V98.5094Z" fill="white"/>
<path d="M38.5217 103.858C38.5217 105.726 37.2688 107.085 35.2999 107.085C33.331 107.085 32.078 105.726 32.078 103.858C32.078 101.99 33.331 100.632 35.2999 100.632C37.3583 100.632 38.5217 101.99 38.5217 103.858ZM36.9108 103.858C36.9108 102.755 36.4633 101.906 35.3894 101.906C34.4049 101.906 33.868 102.755 33.868 103.858C33.868 104.962 34.3154 105.811 35.3894 105.811C36.3738 105.811 36.9108 104.962 36.9108 103.858Z" fill="white"/>
<path d="M41.296 106.151L38.9691 100.802H40.759L41.8329 103.604C42.0119 104.113 42.1909 104.622 42.1909 104.877C42.1909 104.538 42.3699 104.198 42.5489 103.604L43.5333 100.802H45.3233L41.9224 108.952H40.1325L41.296 106.151Z" fill="white"/>
<path d="M45.5917 103.858C45.5917 101.821 47.0237 100.632 48.7241 100.632C50.4245 100.632 51.6774 101.906 51.6774 103.604C51.6774 103.773 51.6774 104.028 51.5879 104.198H47.2026C47.2921 105.132 47.8291 105.726 48.8136 105.726C49.5295 105.726 50.0665 105.387 50.4245 104.877L51.4089 105.726C50.693 106.66 49.798 107.085 48.6346 107.085C46.9342 107.085 45.5917 105.811 45.5917 103.858ZM47.2921 103.179H50.0665C49.977 102.245 49.44 101.821 48.7241 101.821C47.9186 101.906 47.4711 102.33 47.2921 103.179Z" fill="white"/>
<path d="M52.9304 106.915V100.802H54.5413V101.651C54.8993 101.057 55.5257 100.632 56.2417 100.632C56.4207 100.632 56.5102 100.632 56.6892 100.632V102.075H56.3312C55.6152 102.075 54.9888 102.33 54.6308 103.009V106.83H52.9304V106.915Z" fill="white"/>
<path d="M60.09 100.802H61.7009V101.481C62.0589 100.972 62.6853 100.632 63.4908 100.632C64.4752 100.632 65.1017 100.972 65.3702 101.651C65.7282 101.057 66.3546 100.632 67.3391 100.632C68.95 100.632 69.6659 101.566 69.6659 102.924V106.915H68.055V103.179C68.055 102.415 67.6076 101.99 66.9811 101.99C66.3546 101.99 65.9966 102.415 65.7282 102.839V106.915H64.1172V103.179C64.1172 102.415 63.6698 101.99 63.0433 101.99C62.4168 101.99 62.0589 102.415 61.7904 102.839V106.915H60.09V100.802Z" fill="white"/>
<path d="M70.8294 105.132C70.8294 103.943 71.7243 103.179 73.1563 103.179C73.7827 103.179 74.3197 103.349 74.7672 103.689V103.349C74.7672 102.585 74.4092 101.99 73.5142 101.99C72.7983 101.99 72.3508 102.33 72.0823 102.585L71.1874 101.566C71.5454 101.057 72.4403 100.632 73.5142 100.632C75.3936 100.632 76.3781 101.651 76.3781 103.094V106.915H74.8567V106.49C74.4092 106.915 73.7827 107.085 73.1563 107.085C71.7243 107.085 70.8294 106.236 70.8294 105.132ZM74.7672 105.387V104.792C74.4987 104.453 74.1407 104.198 73.5142 104.198C72.7088 104.198 72.4403 104.622 72.4403 105.047C72.4403 105.471 72.7088 105.896 73.5142 105.896C74.1407 105.981 74.5882 105.726 74.7672 105.387Z" fill="white"/>
<path d="M79.6894 106.405C79.6894 107.849 78.9734 108.698 78.0785 109.207L77.094 108.188C77.631 107.764 77.989 107.254 77.989 106.32V100.802H79.5999V106.405H79.6894ZM77.989 98.3396H79.7789V99.8679H77.989V98.3396Z" fill="white"/>
<path d="M87.4755 103.858C87.4755 105.726 86.2225 107.085 84.2537 107.085C82.2848 107.085 81.0318 105.726 81.0318 103.858C81.0318 101.99 82.2848 100.632 84.2537 100.632C86.2225 100.632 87.4755 101.99 87.4755 103.858ZM85.7751 103.858C85.7751 102.755 85.3276 101.906 84.2537 101.906C83.2692 101.906 82.7322 102.755 82.7322 103.858C82.7322 104.962 83.1797 105.811 84.2537 105.811C85.2381 105.811 85.7751 104.962 85.7751 103.858Z" fill="white"/>
<path d="M88.7284 106.915V100.802H90.3393V101.651C90.6973 101.057 91.3238 100.632 92.0397 100.632C92.2187 100.632 92.3082 100.632 92.4872 100.632V102.075H92.1292C91.4133 102.075 90.7868 102.33 90.4288 103.009V106.83H88.7284V106.915Z" fill="white"/>
<path d="M93.0242 103.858C93.0242 101.821 94.4561 100.632 96.1565 100.632C97.8569 100.632 99.1098 101.906 99.1098 103.604C99.1098 103.773 99.1098 104.028 99.0203 104.198H94.6351C94.7246 105.132 95.2615 105.726 96.246 105.726C96.962 105.726 97.4989 105.387 97.8569 104.877L98.8414 105.726C98.1254 106.66 97.2304 107.085 96.067 107.085C94.3666 107.085 93.0242 105.811 93.0242 103.858ZM94.7246 103.179H97.4989C97.4094 102.245 96.8725 101.821 96.1565 101.821C95.351 101.906 94.8141 102.33 94.7246 103.179ZM95.351 99.8679L96.5145 98H98.2149L96.6935 99.783H95.351V99.8679Z" fill="white"/>
<path d="M107.254 106.151C106.806 106.66 106.18 107.085 105.464 107.085C103.853 107.085 102.6 105.896 102.6 103.858C102.6 101.821 103.853 100.632 105.464 100.632C106.18 100.632 106.806 100.972 107.164 101.481V98.5094H108.775V106.915H107.164V106.151H107.254ZM107.254 104.877V102.839C106.985 102.245 106.448 101.906 105.911 101.906C105.017 101.906 104.39 102.5 104.39 103.858C104.39 105.217 105.106 105.811 105.911 105.811C106.448 105.811 106.985 105.471 107.254 104.877Z" fill="white"/>
<path d="M110.207 103.858C110.207 101.821 111.639 100.632 113.34 100.632C115.04 100.632 116.293 101.906 116.293 103.604C116.293 103.773 116.293 104.028 116.203 104.198H111.818C111.908 105.132 112.445 105.726 113.429 105.726C114.145 105.726 114.682 105.387 115.04 104.877L116.024 105.726C115.308 106.66 114.414 107.085 113.25 107.085C111.55 107.085 110.207 105.811 110.207 103.858ZM111.908 103.179H114.682C114.593 102.245 114.056 101.821 113.34 101.821C112.534 101.906 111.997 102.33 111.908 103.179Z" fill="white"/>
<path d="M123.274 106.915H121.663V100.802L120.052 101.651L119.425 100.462L122.11 99.0189H123.274V106.915Z" fill="white"/>
<path d="M132.581 100.377H129.538L129.359 101.736C129.628 101.651 129.896 101.566 130.254 101.566C131.686 101.566 133.029 102.5 133.029 104.283C133.029 105.811 131.776 107.085 129.896 107.085C128.375 107.085 127.659 106.32 127.211 105.726L128.285 104.792C128.643 105.217 129.091 105.811 129.986 105.811C130.791 105.811 131.507 105.217 131.507 104.368C131.507 103.519 130.881 102.924 130.075 102.924C129.538 102.924 129.27 103.094 128.912 103.349L127.927 103.094L128.285 99.1037H132.76V100.377H132.581Z" fill="white"/>
<path d="M134.102 103.009C134.102 100.462 135.266 98.9339 137.324 98.9339C139.383 98.9339 140.546 100.462 140.546 103.009C140.546 105.556 139.383 107.085 137.324 107.085C135.266 107.085 134.102 105.556 134.102 103.009ZM138.935 103.009C138.935 101.311 138.488 100.292 137.324 100.292C136.161 100.292 135.713 101.311 135.713 103.009C135.713 104.707 136.161 105.726 137.324 105.726C138.488 105.726 138.935 104.707 138.935 103.009Z" fill="white"/>
<path d="M141.71 103.009C141.71 100.462 142.873 98.9339 144.931 98.9339C146.99 98.9339 148.153 100.462 148.153 103.009C148.153 105.556 146.99 107.085 144.931 107.085C142.873 107.085 141.71 105.556 141.71 103.009ZM146.542 103.009C146.542 101.311 146.095 100.292 144.931 100.292C143.768 100.292 143.32 101.311 143.32 103.009C143.32 104.707 143.768 105.726 144.931 105.726C146.095 105.726 146.542 104.707 146.542 103.009Z" fill="white"/>
<path d="M149.764 102.67H149.048V101.651H149.854C150.212 99.783 151.464 98.9339 152.986 98.9339C154.06 98.9339 154.776 99.3584 155.313 100.123L154.239 100.972C153.881 100.462 153.433 100.207 152.896 100.207C152.18 100.207 151.643 100.547 151.464 101.566H153.702V102.585H151.285V102.924V103.264H153.702V104.283H151.464C151.733 105.302 152.18 105.641 152.896 105.641C153.433 105.641 153.881 105.387 154.239 104.877L155.313 105.726C154.776 106.49 153.97 106.915 152.986 106.915C151.375 106.915 150.212 106.066 149.854 104.198H149.048V103.179H149.764V102.839V102.67Z" fill="white"/>
<path d="M157.55 98.0849L157.998 98.5094C157.371 99.1037 156.924 99.8679 156.924 101.141C156.924 102.415 157.282 103.179 157.998 103.773L157.55 104.198C156.834 103.688 156.029 102.755 156.029 101.141C156.029 99.5283 156.924 98.5094 157.55 98.0849Z" fill="white"/>
<path d="M158.445 99.4433C158.624 98.9339 159.072 98.3396 159.967 98.3396C161.04 98.3396 161.577 98.9339 161.577 99.7829C161.577 101.141 160.146 101.651 159.609 102.245H161.577V103.009H158.445V102.33C158.982 101.226 160.593 100.717 160.593 99.7829C160.593 99.4433 160.414 99.1037 159.877 99.1037C159.519 99.1037 159.251 99.3584 159.161 99.698L158.445 99.4433Z" fill="white"/>
<path d="M162.472 104.198L162.025 103.773C162.651 103.179 163.099 102.415 163.099 101.141C163.099 99.8679 162.741 99.1037 162.025 98.5094L162.472 98.0849C163.188 98.5943 163.994 99.5283 163.994 101.141C164.083 102.755 163.188 103.773 162.472 104.198Z" fill="white"/>
</svg>
