<svg width="768" height="102" viewBox="0 0 768 102" fill="none" xmlns="http://www.w3.org/2000/svg">
<path d="M0 0H768V102H0V0Z" fill="#002C5F"/>
<path d="M12 58.9269C15.2981 51.9556 25.4792 48.7441 25.4792 42.9478C25.4792 40.4413 24.1887 38.1697 20.8189 38.1697C18.3811 38.1697 16.8038 39.658 16.0151 42.0862L12.1434 39.7363C13.0755 36.6815 15.7283 33 21.034 33C27.0566 33 30.4981 37.2298 30.4981 42.4778C30.4981 51.094 21.1774 54.2272 18.6679 58.0653H31V63H12V58.9269Z" fill="white"/>
<path d="M55 47.7883C55 57.9107 50.3256 64 43 64C38.814 64 35.7442 61.7066 34.1395 58.8597L37.4884 55.4592C38.6047 57.4362 40.6279 58.7806 43 58.7806C46.6279 58.7806 49.4186 56.0128 49.907 50.6352C48.3023 52.6122 46.1395 53.9566 43.1395 53.9566C38.186 53.9566 34 49.8444 34 43.5969C34 37.3495 38.6047 33 44.186 33C51.3023 33.0791 55 39.2474 55 47.7883ZM39.0233 43.5179C39.0233 46.4439 40.9767 48.8954 44.1163 48.8954C47.2558 48.8954 49.2093 46.4439 49.2093 43.5179C49.2093 40.6709 47.2558 38.2194 44.1163 38.2194C40.907 38.2194 39.0233 40.6709 39.0233 43.5179Z" fill="white"/>
<path d="M79 47.7883C79 57.9107 74.3256 64 67 64C62.814 64 59.7442 61.7066 58.1395 58.8597L61.4884 55.4592C62.6047 57.4362 64.6279 58.7806 67 58.7806C70.6279 58.7806 73.4186 56.0128 73.907 50.6352C72.3023 52.6122 70.1395 53.9566 67.1395 53.9566C62.186 53.9566 58 49.8444 58 43.5969C58 37.3495 62.6047 33 68.186 33C75.2326 33.0791 79 39.2474 79 47.7883ZM62.9535 43.5179C62.9535 46.4439 64.907 48.8954 68.0465 48.8954C71.186 48.8954 73.1395 46.4439 73.1395 43.5179C73.1395 40.6709 71.186 38.2194 68.0465 38.2194C64.907 38.2194 62.9535 40.6709 62.9535 43.5179Z" fill="white"/>
<path d="M15.3913 11.5758H16.268L18.6593 19.1191H17.7825L17.2246 17.1872H14.4348L13.8768 19.1191H13L15.3913 11.5758ZM14.5145 9H15.3913L16.1883 10.6558H15.5507L14.5145 9ZM14.5942 16.3593H16.9057L16.0289 13.4156C15.8695 12.9556 15.7898 12.5877 15.7898 12.4037C15.7898 12.5877 15.7101 12.9556 15.5507 13.4156L14.5942 16.3593Z" fill="white"/>
<path d="M21.6085 13.5996H22.3259V14.4275C22.6447 13.8755 23.2027 13.5076 23.8404 13.5076C25.1157 13.5076 25.9128 14.7035 25.9128 16.3593C25.9128 18.0152 25.1157 19.2111 23.8404 19.2111C23.2824 19.2111 22.7244 18.8431 22.3259 18.3831V21.1429H21.5288V13.5996H21.6085ZM25.1157 16.3593C25.1157 15.0714 24.5577 14.2435 23.6809 14.2435C23.123 14.2435 22.565 14.6115 22.3259 15.2554V17.4632C22.565 18.0152 23.0433 18.4751 23.6809 18.4751C24.5577 18.3831 25.1157 17.6472 25.1157 16.3593Z" fill="white"/>
<path d="M26.7896 17.3712C26.7896 16.3593 27.5069 15.5314 28.5431 15.5314C29.0214 15.5314 29.4996 15.7154 29.8982 16.1753V15.6234C29.8982 14.7955 29.4996 14.2435 28.7026 14.2435C28.1446 14.2435 27.8258 14.5195 27.5069 14.8875L27.1084 14.2435C27.4272 13.7836 27.9055 13.4156 28.7823 13.4156C30.0576 13.4156 30.6953 14.2435 30.6953 15.5314V19.0271H29.8982V18.4751C29.5793 18.9351 29.0214 19.1191 28.5431 19.1191C27.5069 19.2111 26.7896 18.3831 26.7896 17.3712ZM29.8982 17.7392V17.0033C29.6591 16.5433 29.1011 16.3593 28.7026 16.3593C27.9055 16.3593 27.5866 16.9113 27.5866 17.4632C27.5866 17.9232 27.9055 18.5671 28.7026 18.5671C29.1011 18.4751 29.5793 18.2911 29.8982 17.7392Z" fill="white"/>
<path d="M32.1301 13.5996H32.8474V14.6115C33.0866 13.9675 33.5648 13.5076 34.2822 13.5076C34.3619 13.5076 34.4416 13.5076 34.5213 13.5076V14.4275H34.2822C33.6445 14.4275 33.1663 14.7955 32.9272 15.6234V19.1191H32.1301V13.5996V13.5996Z" fill="white"/>
<path d="M35.7967 17.2792V14.3355H34.9199V13.5996H35.7967V12.2197H36.514V13.5996H37.5502V14.3355H36.514V17.2792C36.514 18.0152 36.8329 18.2911 37.4705 18.2911H37.63V19.0271C37.5502 19.0271 37.3908 19.0271 37.3111 19.0271C36.3546 19.1191 35.7967 18.5671 35.7967 17.2792Z" fill="white"/>
<path d="M39.7024 11.2078V12.3117H38.7458V11.2078H39.7024ZM39.6226 13.5996V19.0271H38.8256V13.5996H39.6226V13.5996Z" fill="white"/>
<path d="M41.1371 13.5996H41.8545V14.6115C42.0936 13.9675 42.5719 13.5076 43.2893 13.5076C43.369 13.5076 43.4487 13.5076 43.5284 13.5076V14.4275H43.2893C42.6516 14.4275 42.1734 14.7955 41.9342 15.6234V19.1191H41.1371V13.5996V13.5996Z" fill="white"/>
<path d="M49.8253 18.2911C49.5065 18.8431 48.9486 19.2111 48.3109 19.2111C47.0355 19.2111 46.2385 18.0152 46.2385 16.3593C46.2385 14.7035 47.0355 13.5076 48.3109 13.5076C48.8688 13.5076 49.4268 13.8755 49.8253 14.3355V11.2078H50.6224V19.0271H49.8253V18.2911ZM49.7456 17.3712V15.1634C49.5862 14.6115 49.0283 14.2435 48.4703 14.2435C47.5935 14.2435 47.0355 15.0714 47.0355 16.3593C47.0355 17.6472 47.5935 18.4751 48.4703 18.4751C49.0283 18.3831 49.5862 18.0152 49.7456 17.3712Z" fill="white"/>
<path d="M51.8181 16.3593C51.8181 14.6115 52.6948 13.5076 53.9702 13.5076C55.2455 13.5076 56.0426 14.6115 56.0426 16.1753C56.0426 16.3593 56.0426 16.4513 56.0426 16.6353H52.6948C52.7746 17.7392 53.2528 18.4751 54.1296 18.4751C54.6876 18.4751 55.1658 18.1991 55.4846 17.6472L55.9629 18.1072C55.6441 18.7511 55.0064 19.2111 54.0499 19.2111C52.6151 19.2111 51.8181 18.1072 51.8181 16.3593ZM52.6151 15.8074H55.2455C55.1658 14.7955 54.6876 14.2435 53.9702 14.2435C53.2528 14.2435 52.7746 14.7955 52.6151 15.8074Z" fill="white"/>
<path d="M81.9352 52.3392H83.324C84.1573 49.374 86.1711 47.5307 88.8098 47.5307C90.4069 47.5307 91.7957 48.252 92.8373 49.6945L91.3791 51.7782C90.7541 50.8165 89.9903 50.2555 88.8792 50.2555C87.5599 50.2555 86.5877 50.9768 86.0322 52.4193H90.4069V54.8235H85.6155C85.6155 55.064 85.6155 55.3044 85.6155 55.4647C85.6155 55.7051 85.6155 55.9455 85.6155 56.1859H90.4069V58.5902H86.1016C86.6571 60.0327 87.6987 60.6738 88.9487 60.6738C90.0597 60.6738 90.7541 60.1128 91.4485 59.1511L92.9068 61.2348C91.8652 62.6773 90.4763 63.3986 88.8792 63.3986C86.2405 63.3986 84.2267 61.5554 83.3935 58.5902H82.0047V56.1859H82.9768C82.9768 55.9455 82.9768 55.7051 82.9768 55.4647C82.9768 55.2242 82.9768 54.9838 82.9768 54.8235H82.0047V52.3392H81.9352Z" fill="white"/>
<path d="M99.4341 47.7711H101.726L95.8232 62.9177H93.6012L99.4341 47.7711Z" fill="white"/>
<path d="M116.516 56.5065C116.516 54.6633 115.891 53.7016 114.364 53.7016C113.114 53.7016 112.419 54.6633 112.142 55.7051V62.9178H109.711V56.5065C109.711 54.6633 109.017 53.7016 107.559 53.7016C106.309 53.7016 105.614 54.6633 105.337 55.7051V62.9178H102.906V51.4576H105.337V53.0604C105.892 52.0186 106.864 51.2172 108.392 51.2172C110.058 51.2172 111.1 52.0186 111.586 53.381C112.35 52.0186 113.461 51.2172 115.128 51.2172C117.697 51.2172 118.808 53.3009 118.808 56.1859V62.9178H116.378V56.5065H116.516Z" fill="white"/>
<path d="M120.613 57.2278C120.613 54.1023 122.419 51.2172 125.891 51.2172C129.363 51.2172 131.168 54.1023 131.168 57.2278C131.168 60.3533 129.363 63.2383 125.891 63.2383C122.419 63.2383 120.613 60.3533 120.613 57.2278ZM123.044 57.2278C123.044 59.3916 124.224 60.754 125.821 60.754C127.419 60.754 128.599 59.3916 128.599 57.2278C128.599 55.1441 127.419 53.7016 125.821 53.7016C124.224 53.7016 123.044 55.064 123.044 57.2278Z" fill="white"/>
<path d="M132.835 46.569H135.335V49.5342H132.835V46.569ZM132.904 51.4576H135.335V62.9177H132.904V51.4576Z" fill="white"/>
<path d="M136.793 60.9944L138.112 59.2313C138.737 60.193 139.918 60.9142 141.098 60.9142C142.14 60.9142 142.904 60.4334 142.904 59.5518C142.904 58.8306 142.279 58.51 141.376 58.2696L140.473 58.1093C138.598 57.7887 137.487 56.5866 137.487 54.6632C137.487 52.6597 138.946 51.0569 141.445 51.0569C143.043 51.0569 144.223 51.7782 144.917 52.82L143.598 54.6632C142.973 53.8618 142.209 53.4611 141.307 53.4611C140.404 53.4611 139.918 53.942 139.918 54.5831C139.918 55.1441 140.334 55.4647 141.029 55.6249L141.932 55.7852C144.223 56.1859 145.334 57.388 145.334 59.3915C145.334 61.4752 143.737 63.2383 140.959 63.2383C139.154 63.2383 137.765 62.2766 136.793 60.9944Z" fill="white"/>
<path d="M148.876 57.8689C147.764 56.9873 146.376 55.2242 146.376 52.0987C146.376 48.9733 147.764 47.2102 148.876 46.3286L149.5 47.2102C148.389 48.3321 147.695 49.6144 147.695 52.0987C147.695 54.5831 148.459 55.8654 149.5 56.9873L148.876 57.8689Z" fill="white"/>
<path d="M151.514 48.5726L150.125 49.4541L149.57 48.1719L151.861 46.7293H152.903V55.5448H151.445V48.5726H151.514Z" fill="white"/>
<path d="M154.5 46.3286C155.611 47.2102 157 48.9733 157 52.0987C157 55.2242 155.611 56.9873 154.5 57.8689L153.875 56.9873C154.986 55.8654 155.681 54.5831 155.681 52.0987C155.681 49.6144 154.917 48.3321 153.875 47.2102L154.5 46.3286Z" fill="white"/>
<path d="M17.1634 84.9148H15.8392V78.8018L14.515 79.6508L14 78.4622L16.207 77.0188H17.1634V84.9148Z" fill="white"/>
<path d="M18.1933 79.2263C18.1933 78.0377 18.8554 77.3585 19.6646 77.3585C20.4739 77.3585 21.0624 78.1226 21.0624 79.1414C21.0624 79.2263 21.0624 79.3961 21.0624 79.481H19.0025C19.0761 79.9904 19.2968 80.3301 19.8118 80.3301C20.1796 80.3301 20.4003 80.1603 20.5474 79.8206L21.0624 80.3301C20.6946 80.8395 20.3267 81.0942 19.7382 81.0942C18.8554 81.0093 18.1933 80.3301 18.1933 79.2263ZM19.0025 78.8018H20.3267C20.2532 78.2924 20.0325 78.0377 19.6646 78.0377C19.3704 78.0377 19.0761 78.2924 19.0025 78.8018Z" fill="white"/>
<path d="M21.7245 80.9244V77.3584H22.4602V77.8679C22.6073 77.5283 22.9016 77.2735 23.2694 77.2735C23.343 77.2735 23.4165 77.2735 23.4901 77.2735V78.1226H23.343C22.9751 78.1226 22.6809 78.2075 22.5337 78.7169V80.9244H21.7245V80.9244Z" fill="white"/>
<path d="M26.5063 76.5094H27.8305V84.9148H26.5063V76.5094V76.5094Z" fill="white"/>
<path d="M34.1573 81.8583C34.1573 83.7262 33.1273 85.0846 31.5089 85.0846C29.8904 85.0846 28.8605 83.7262 28.8605 81.8583C28.8605 79.9904 29.8904 78.632 31.5089 78.632C33.2009 78.632 34.1573 79.9904 34.1573 81.8583ZM32.8331 81.8583C32.8331 80.7546 32.4652 79.9055 31.5824 79.9055C30.7732 79.9055 30.3318 80.7546 30.3318 81.8583C30.3318 82.962 30.6996 83.8111 31.5824 83.8111C32.3917 83.8111 32.8331 82.962 32.8331 81.8583Z" fill="white"/>
<path d="M36.4378 84.1507L34.525 78.8018H35.9964L36.8791 81.6036C37.0263 82.113 37.1734 82.6224 37.1734 82.8771C37.1734 82.5375 37.3206 82.1979 37.4677 81.6036L38.2769 78.8018H39.7482L36.9527 86.9525H35.4814L36.4378 84.1507Z" fill="white"/>
<path d="M39.9689 81.8583C39.9689 79.8206 41.146 78.632 42.5438 78.632C43.9415 78.632 44.9715 79.9055 44.9715 81.6036C44.9715 81.7734 44.9715 82.0281 44.8979 82.1979H41.2931C41.3667 83.1319 41.8081 83.7262 42.6173 83.7262C43.2059 83.7262 43.6473 83.3866 43.9415 82.8771L44.7508 83.7262C44.1622 84.6601 43.4266 85.0846 42.4702 85.0846C41.0724 85.0846 39.9689 83.8111 39.9689 81.8583ZM41.3667 81.1791H43.6473C43.5737 80.2452 43.1323 79.8206 42.5438 79.8206C41.8817 79.9055 41.5138 80.3301 41.3667 81.1791Z" fill="white"/>
<path d="M46.0015 84.9148V78.8018H47.3257V79.6508C47.6199 79.0565 48.1349 78.632 48.7234 78.632C48.8706 78.632 48.9441 78.632 49.0913 78.632V80.0754H48.797C48.2085 80.0754 47.6935 80.3301 47.3992 81.0093V84.8299H46.0015V84.9148Z" fill="white"/>
<path d="M51.8867 78.8018H53.2109V79.481C53.5052 78.9716 54.0201 78.632 54.6822 78.632C55.4915 78.632 56.0064 78.9716 56.2271 79.6508C56.5214 79.0565 57.0364 78.632 57.8456 78.632C59.1698 78.632 59.7583 79.5659 59.7583 80.9244V84.9148H58.4341V81.1791C58.4341 80.415 58.0663 79.9904 57.5513 79.9904C57.0364 79.9904 56.7421 80.415 56.5214 80.8395V84.9148H55.1972V81.1791C55.1972 80.415 54.8294 79.9904 54.3144 79.9904C53.7994 79.9904 53.5052 80.415 53.2845 80.8395V84.9148H51.8867V78.8018Z" fill="white"/>
<path d="M60.7147 83.1319C60.7147 81.9432 61.4504 81.1791 62.6274 81.1791C63.1424 81.1791 63.5838 81.3489 63.9516 81.6885V81.3489C63.9516 80.5848 63.6574 79.9904 62.9217 79.9904C62.3332 79.9904 61.9654 80.3301 61.7447 80.5848L61.009 79.5659C61.3033 79.0565 62.0389 78.632 62.9217 78.632C64.4666 78.632 65.2758 79.6508 65.2758 81.0942V84.9148H64.0252V84.4903C63.6574 84.9148 63.1424 85.0846 62.6274 85.0846C61.4504 85.0846 60.7147 84.2356 60.7147 83.1319ZM63.9516 83.3866V82.7922C63.7309 82.4526 63.4367 82.1979 62.9217 82.1979C62.2596 82.1979 62.0389 82.6224 62.0389 83.047C62.0389 83.4715 62.2596 83.896 62.9217 83.896C63.4367 83.9809 63.8045 83.7262 63.9516 83.3866Z" fill="white"/>
<path d="M67.9978 84.4054C67.9978 85.8487 67.4093 86.6978 66.6736 87.2072L65.8644 86.1883C66.3058 85.7638 66.6 85.2544 66.6 84.3205V78.8018H67.9242V84.4054H67.9978ZM66.6 76.3396H68.0714V77.8679H66.6V76.3396Z" fill="white"/>
<path d="M74.3981 81.8583C74.3981 83.7262 73.3681 85.0846 71.7497 85.0846C70.1312 85.0846 69.1013 83.7262 69.1013 81.8583C69.1013 79.9904 70.1312 78.632 71.7497 78.632C73.3681 78.632 74.3981 79.9904 74.3981 81.8583ZM73.0003 81.8583C73.0003 80.7546 72.6325 79.9055 71.7497 79.9055C70.9404 79.9055 70.4991 80.7546 70.4991 81.8583C70.4991 82.962 70.8669 83.8111 71.7497 83.8111C72.5589 83.8111 73.0003 82.962 73.0003 81.8583Z" fill="white"/>
<path d="M75.428 84.9148V78.8018H76.7522V79.6508C77.0465 79.0565 77.5614 78.632 78.15 78.632C78.2971 78.632 78.3707 78.632 78.5178 78.632V80.0754H78.2235C77.635 80.0754 77.12 80.3301 76.8258 81.0093V84.8299H75.428V84.9148Z" fill="white"/>
<path d="M78.9592 81.8583C78.9592 79.8206 80.1363 78.632 81.534 78.632C82.9318 78.632 83.9617 79.9055 83.9617 81.6036C83.9617 81.7734 83.9617 82.0281 83.8882 82.1979H80.2834C80.357 83.1319 80.7984 83.7262 81.6076 83.7262C82.1961 83.7262 82.6375 83.3866 82.9318 82.8771L83.741 83.7262C83.1525 84.6601 82.4168 85.0846 81.4605 85.0846C80.0627 85.0846 78.9592 83.8111 78.9592 81.8583ZM80.357 81.1791H82.6375C82.564 80.2451 82.1226 79.8206 81.534 79.8206C80.8719 79.9055 80.4305 80.33 80.357 81.1791ZM80.8719 77.8679L81.8283 76H83.2261L81.9754 77.783H80.8719V77.8679Z" fill="white"/>
<path d="M90.6563 84.1507C90.2884 84.6601 89.7735 85.0846 89.1849 85.0846C87.8607 85.0846 86.8308 83.896 86.8308 81.8583C86.8308 79.8206 87.8607 78.632 89.1849 78.632C89.7735 78.632 90.2884 78.9716 90.5827 79.481V76.5094H91.9069V84.9148H90.5827V84.1507H90.6563ZM90.6563 82.8772V80.8395C90.4356 80.2452 89.9942 79.9055 89.5528 79.9055C88.8171 79.9055 88.3021 80.4999 88.3021 81.8583C88.3021 83.2168 88.8907 83.8111 89.5528 83.8111C89.9942 83.8111 90.4356 83.4715 90.6563 82.8772Z" fill="white"/>
<path d="M93.084 81.8583C93.084 79.8206 94.261 78.632 95.6588 78.632C97.0566 78.632 98.0865 79.9055 98.0865 81.6036C98.0865 81.7734 98.0865 82.0281 98.0129 82.1979H94.4082C94.4817 83.1319 94.9231 83.7262 95.7324 83.7262C96.3209 83.7262 96.7623 83.3866 97.0566 82.8771L97.8658 83.7262C97.2773 84.6601 96.5416 85.0846 95.5852 85.0846C94.1875 85.0846 93.084 83.8111 93.084 81.8583ZM94.4817 81.1791H96.7623C96.6887 80.2452 96.2473 79.8206 95.6588 79.8206C94.9967 79.9055 94.5553 80.3301 94.4817 81.1791Z" fill="white"/>
<path d="M103.825 84.9148H102.5V78.8018L101.176 79.6508L100.661 78.4622L102.868 77.0188H103.825V84.9148Z" fill="white"/>
<path d="M111.476 78.3773H108.974L108.827 79.7357C109.048 79.6508 109.269 79.5659 109.563 79.5659C110.74 79.5659 111.843 80.4999 111.843 82.2828C111.843 83.8111 110.814 85.0846 109.269 85.0846C108.018 85.0846 107.429 84.3205 107.062 83.7262L107.944 82.7922C108.239 83.2168 108.607 83.8111 109.342 83.8111C110.004 83.8111 110.593 83.2168 110.593 82.3677C110.593 81.5187 110.078 80.9244 109.416 80.9244C108.974 80.9244 108.754 81.0942 108.459 81.3489L107.65 81.0942L107.944 77.1037H111.623V78.3773H111.476Z" fill="white"/>
<path d="M112.726 81.0093C112.726 78.4622 113.683 76.9339 115.375 76.9339C117.067 76.9339 118.023 78.4622 118.023 81.0093C118.023 83.5564 117.067 85.0846 115.375 85.0846C113.683 85.0846 112.726 83.5564 112.726 81.0093ZM116.699 81.0093C116.699 79.3112 116.331 78.2924 115.375 78.2924C114.418 78.2924 114.05 79.3112 114.05 81.0093C114.05 82.7073 114.418 83.7262 115.375 83.7262C116.331 83.7262 116.699 82.7073 116.699 81.0093Z" fill="white"/>
<path d="M118.979 81.0093C118.979 78.4622 119.936 76.9339 121.628 76.9339C123.32 76.9339 124.276 78.4622 124.276 81.0093C124.276 83.5564 123.32 85.0846 121.628 85.0846C119.936 85.0846 118.979 83.5564 118.979 81.0093ZM122.952 81.0093C122.952 79.3112 122.584 78.2924 121.628 78.2924C120.671 78.2924 120.304 79.3112 120.304 81.0093C120.304 82.7073 120.671 83.7262 121.628 83.7262C122.584 83.7262 122.952 82.7073 122.952 81.0093Z" fill="white"/>
<path d="M125.6 80.6697H125.012V79.6508H125.674C125.968 77.783 126.998 76.9339 128.249 76.9339C129.132 76.9339 129.72 77.3585 130.161 78.1226L129.279 78.9716C128.984 78.4622 128.617 78.2075 128.175 78.2075C127.587 78.2075 127.145 78.5471 126.998 79.5659H128.837V80.5848H126.851V80.9244V81.264H128.837V82.2828H126.998C127.219 83.3017 127.587 83.6413 128.175 83.6413C128.617 83.6413 128.984 83.3866 129.279 82.8772L130.161 83.7262C129.72 84.4903 129.058 84.9148 128.249 84.9148C126.925 84.9148 125.968 84.0658 125.674 82.1979H125.012V81.1791H125.6V80.8395V80.6697Z" fill="white"/>
<path d="M132.001 76.0849L132.368 76.5094C131.854 77.1038 131.486 77.8679 131.486 79.1414C131.486 80.415 131.78 81.1791 132.368 81.7734L132.001 82.1979C131.412 81.6885 130.75 80.7546 130.75 79.1414C130.75 77.5283 131.486 76.5094 132.001 76.0849Z" fill="white"/>
<path d="M132.736 77.4433C132.883 76.9339 133.251 76.3396 133.987 76.3396C134.87 76.3396 135.311 76.9339 135.311 77.7829C135.311 79.1414 134.134 79.6508 133.693 80.2451H135.311V81.0093H132.736V80.33C133.178 79.2263 134.502 78.7169 134.502 77.7829C134.502 77.4433 134.355 77.1037 133.913 77.1037C133.619 77.1037 133.398 77.3584 133.325 77.698L132.736 77.4433Z" fill="white"/>
<path d="M136.047 82.1979L135.679 81.7734C136.194 81.1791 136.562 80.415 136.562 79.1414C136.562 77.8679 136.267 77.1038 135.679 76.5094L136.047 76.0849C136.635 76.5943 137.297 77.5283 137.297 79.1414C137.371 80.7546 136.635 81.7734 136.047 82.1979Z" fill="white"/>
</svg>
