<?xml version="1.0" encoding="utf-8"?>
<!-- Generator: Adobe Illustrator 25.0.0, SVG Export Plug-In . SVG Version: 6.00 Build 0)  -->
<svg version="1.1" id="Calque_1" xmlns="http://www.w3.org/2000/svg" xmlns:xlink="http://www.w3.org/1999/xlink" x="0px" y="0px"
	 viewBox="0 0 240.9 136.1" style="enable-background:new 0 0 240.9 136.1;" xml:space="preserve">
<style type="text/css">
	.st0{fill:#002C5F;}
	.st1{fill:#FFFFFF;}
</style>
<path class="st0" d="M0,0h240.9v136.1H0V0z"/>
<g>
	<path class="st1" d="M14.1,75c4.6-8.9,18.8-13,18.8-20.4c0-3.2-1.8-6.1-6.5-6.1c-3.4,0-5.6,1.9-6.7,5l-5.4-3
		c1.3-3.9,5-8.6,12.4-8.6c8.4,0,13.2,5.4,13.2,12.1c0,11-13,15-16.5,19.9h17.2v6.3H14.1V75z"/>
	<path class="st1" d="M75.2,60.7c0,12.8-6.7,20.5-17.2,20.5c-6,0-10.4-2.9-12.7-6.5l4.8-4.3c1.6,2.5,4.5,4.2,7.9,4.2
		c5.2,0,9.2-3.5,9.9-10.3c-2.3,2.5-5.4,4.2-9.7,4.2c-7.1,0-13.1-5.2-13.1-13.1c0-7.9,6.6-13.4,14.6-13.4
		C69.9,42.1,75.2,49.9,75.2,60.7z M52.3,55.3c0,3.7,2.8,6.8,7.3,6.8c4.5,0,7.3-3.1,7.3-6.8c0-3.6-2.8-6.7-7.3-6.7
		C55,48.6,52.3,51.7,52.3,55.3z"/>
	<path class="st1" d="M110,60.7c0,12.8-6.7,20.5-17.2,20.5c-6,0-10.4-2.9-12.7-6.5l4.8-4.3c1.6,2.5,4.5,4.2,7.9,4.2
		c5.2,0,9.2-3.5,9.9-10.3c-2.3,2.5-5.4,4.2-9.7,4.2c-7.1,0-13.1-5.2-13.1-13.1c0-7.9,6.6-13.4,14.6-13.4
		C104.6,42.1,110,49.9,110,60.7z M87,55.3c0,3.7,2.8,6.8,7.3,6.8c4.5,0,7.3-3.1,7.3-6.8c0-3.6-2.8-6.7-7.3-6.7
		C89.8,48.6,87,51.7,87,55.3z"/>
</g>
<g>
	<path class="st1" d="M16.8,15.1h1.1l3,8.2h-1.1l-0.7-2.1h-3.5l-0.7,2.1h-1.1L16.8,15.1z M15.7,12.3L15.7,12.3l1.1,0l1,1.8v0H17
		L15.7,12.3z M15.8,20.3h2.9l-1.1-3.2c-0.2-0.5-0.3-0.9-0.3-1.1h0c0,0.2-0.1,0.6-0.3,1.1L15.8,20.3z"/>
	<path class="st1" d="M24.6,17.3h0.9v0.9c0.4-0.6,1.1-1,1.9-1c1.6,0,2.6,1.3,2.6,3.1c0,1.8-1,3.1-2.6,3.1c-0.7,0-1.4-0.4-1.9-0.9v3
		h-1V17.3z M29,20.3c0-1.4-0.7-2.3-1.8-2.3c-0.7,0-1.4,0.4-1.7,1.1v2.4c0.3,0.6,0.9,1.1,1.7,1.1C28.3,22.5,29,21.7,29,20.3z"/>
	<path class="st1" d="M31.1,21.4c0-1.1,0.9-2,2.2-2c0.6,0,1.2,0.2,1.7,0.7v-0.6c0-0.9-0.5-1.5-1.5-1.5c-0.7,0-1.1,0.3-1.5,0.7
		L31.5,18c0.4-0.5,1-0.9,2.1-0.9c1.6,0,2.4,0.9,2.4,2.3v3.8H35v-0.6c-0.4,0.5-1.1,0.7-1.7,0.7C32,23.4,31.1,22.5,31.1,21.4z
		 M35,21.8V21c-0.3-0.5-1-0.7-1.5-0.7c-1,0-1.4,0.6-1.4,1.2c0,0.5,0.4,1.2,1.4,1.2C34,22.6,34.6,22.4,35,21.8z"/>
	<path class="st1" d="M37.8,17.3h0.9v1.1c0.3-0.7,0.9-1.2,1.8-1.2c0.1,0,0.2,0,0.3,0v1h-0.3c-0.8,0-1.4,0.4-1.7,1.3v3.8h-1V17.3z"/>
	<path class="st1" d="M42.4,21.3v-3.2h-1.1v-0.8h1.1v-1.5h0.9v1.5h1.3v0.8h-1.3v3.2c0,0.8,0.4,1.1,1.2,1.1h0.2v0.8
		c-0.1,0-0.3,0-0.4,0C43.1,23.3,42.4,22.7,42.4,21.3z"/>
	<path class="st1" d="M47.3,14.7v1.2h-1.2v-1.2H47.3z M47.2,17.3v5.9h-1v-5.9H47.2z"/>
	<path class="st1" d="M49.1,17.3H50v1.1c0.3-0.7,0.9-1.2,1.8-1.2c0.1,0,0.2,0,0.3,0v1h-0.3c-0.8,0-1.4,0.4-1.7,1.3v3.8h-1V17.3z"/>
	<path class="st1" d="M60,22.4c-0.4,0.6-1.1,1-1.9,1c-1.6,0-2.6-1.3-2.6-3.1c0-1.8,1-3.1,2.6-3.1c0.7,0,1.4,0.4,1.9,0.9v-3.4h1v8.5
		H60V22.4z M59.9,21.4v-2.4C59.7,18.4,59,18,58.3,18c-1.1,0-1.8,0.9-1.8,2.3c0,1.4,0.7,2.3,1.8,2.3C59,22.5,59.7,22.1,59.9,21.4z"/>
	<path class="st1" d="M62.5,20.3c0-1.9,1.1-3.1,2.7-3.1c1.6,0,2.6,1.2,2.6,2.9c0,0.2,0,0.3,0,0.5h-4.2c0.1,1.2,0.7,2,1.8,2
		c0.7,0,1.3-0.3,1.7-0.9l0.6,0.5c-0.4,0.7-1.2,1.2-2.4,1.2C63.5,23.4,62.5,22.2,62.5,20.3z M63.5,19.7h3.3c-0.1-1.1-0.7-1.7-1.6-1.7
		C64.3,18,63.7,18.6,63.5,19.7z"/>
</g>
<g>
	<path class="st1" d="M114.5,66.4h2c1.2-3.7,4.1-6,7.9-6c2.3,0,4.3,0.9,5.8,2.7l-2.1,2.6c-0.9-1.2-2-1.9-3.6-1.9
		c-1.9,0-3.3,0.9-4.1,2.7h6.3v3h-6.9c0,0.3,0,0.6,0,0.8c0,0.3,0,0.6,0,0.9h6.9v3h-6.2c0.8,1.8,2.3,2.6,4.1,2.6
		c1.6,0,2.6-0.7,3.6-1.9l2.1,2.6c-1.5,1.8-3.5,2.7-5.8,2.7c-3.8,0-6.7-2.3-7.9-6h-2v-3h1.4c0-0.3,0-0.6,0-0.9c0-0.3,0-0.6,0-0.8
		h-1.4V66.4z"/>
	<path class="st1" d="M139.7,60.7h3.3l-8.5,18.9h-3.2L139.7,60.7z"/>
	<path class="st1" d="M164.3,71.6c0-2.3-0.9-3.5-3.1-3.5c-1.8,0-2.8,1.2-3.2,2.5v9h-3.5v-8c0-2.3-1-3.5-3.1-3.5
		c-1.8,0-2.8,1.2-3.2,2.5v9h-3.5V65.3h3.5v2c0.8-1.3,2.2-2.3,4.4-2.3c2.4,0,3.9,1,4.6,2.7c1.1-1.7,2.7-2.7,5.1-2.7
		c3.7,0,5.3,2.6,5.3,6.2v8.4h-3.5V71.6z"/>
	<path class="st1" d="M170.2,72.5c0-3.9,2.6-7.5,7.6-7.5c5,0,7.6,3.6,7.6,7.5c0,3.9-2.6,7.5-7.6,7.5C172.8,80,170.2,76.4,170.2,72.5
		z M173.7,72.5c0,2.7,1.7,4.4,4,4.4s4-1.7,4-4.4c0-2.6-1.7-4.4-4-4.4S173.7,69.8,173.7,72.5z"/>
	<path class="st1" d="M187.8,59.2h3.6v3.7h-3.6V59.2z M187.9,65.3h3.5v14.3h-3.5V65.3z"/>
	<path class="st1" d="M193.5,77.2l1.9-2.2c0.9,1.2,2.6,2.1,4.3,2.1c1.5,0,2.6-0.6,2.6-1.7c0-0.9-0.9-1.3-2.2-1.6l-1.3-0.2
		c-2.7-0.4-4.3-1.9-4.3-4.3c0-2.5,2.1-4.5,5.7-4.5c2.3,0,4,0.9,5,2.2l-1.9,2.3c-0.9-1-2-1.5-3.3-1.5c-1.3,0-2,0.6-2,1.4
		c0,0.7,0.6,1.1,1.6,1.3l1.3,0.2c3.3,0.5,4.9,2,4.9,4.5c0,2.6-2.3,4.8-6.3,4.8C196.9,80,194.9,78.8,193.5,77.2z"/>
	<path class="st1" d="M210.9,73.3c-1.6-1.1-3.6-3.3-3.6-7.2s2-6.1,3.6-7.2l0.9,1.1c-1.6,1.4-2.6,3-2.6,6.1c0,3.1,1.1,4.7,2.6,6.1
		L210.9,73.3z"/>
	<path class="st1" d="M214.7,61.7l-2,1.1l-0.8-1.6l3.3-1.8h1.5v11h-2.1V61.7z"/>
	<path class="st1" d="M219,58.9c1.6,1.1,3.6,3.3,3.6,7.2s-2,6.1-3.6,7.2l-0.9-1.1c1.6-1.4,2.6-3,2.6-6.1c0-3.1-1.1-4.7-2.6-6.1
		L219,58.9z"/>
</g>
<g>
	<path class="st1" d="M17.8,111.1H16v-7.2l-1.8,1l-0.7-1.4l3-1.7h1.3V111.1z"/>
	<path class="st1" d="M19.2,104.4c0-1.4,0.9-2.2,2-2.2c1.1,0,1.9,0.9,1.9,2.1c0,0.1,0,0.3,0,0.4h-2.8c0.1,0.6,0.4,1,1.1,1
		c0.5,0,0.8-0.2,1-0.6l0.7,0.6c-0.5,0.6-1,0.9-1.8,0.9C20.1,106.5,19.2,105.7,19.2,104.4z M20.3,103.9h1.8c-0.1-0.6-0.4-0.9-0.9-0.9
		C20.8,103,20.4,103.3,20.3,103.9z"/>
	<path class="st1" d="M24,106.4v-4.2h1v0.6c0.2-0.4,0.6-0.7,1.1-0.7c0.1,0,0.2,0,0.3,0v1h-0.2c-0.5,0-0.9,0.1-1.1,0.7v2.6H24z"/>
	<path class="st1" d="M30.5,101.2h1.8v9.9h-1.8V101.2z"/>
	<path class="st1" d="M40.9,107.5c0,2.2-1.4,3.8-3.6,3.8c-2.2,0-3.6-1.6-3.6-3.8c0-2.2,1.4-3.8,3.6-3.8
		C39.6,103.7,40.9,105.3,40.9,107.5z M39.1,107.5c0-1.3-0.5-2.3-1.7-2.3c-1.1,0-1.7,1-1.7,2.3s0.5,2.3,1.7,2.3
		C38.5,109.8,39.1,108.8,39.1,107.5z"/>
	<path class="st1" d="M44,110.2l-2.6-6.3h2l1.2,3.3c0.2,0.6,0.4,1.2,0.4,1.5H45c0-0.4,0.2-0.8,0.4-1.5l1.1-3.3h2l-3.8,9.6h-2
		L44,110.2z"/>
	<path class="st1" d="M48.8,107.5c0-2.4,1.6-3.8,3.5-3.8c1.9,0,3.3,1.5,3.3,3.5c0,0.2,0,0.5-0.1,0.7h-4.9c0.1,1.1,0.7,1.8,1.8,1.8
		c0.8,0,1.4-0.4,1.8-1l1.1,1c-0.8,1.1-1.8,1.6-3.1,1.6C50.3,111.3,48.8,109.8,48.8,107.5z M50.7,106.7h3.1c-0.1-1.1-0.7-1.6-1.5-1.6
		C51.4,105.2,50.9,105.7,50.7,106.7z"/>
	<path class="st1" d="M57,111.1v-7.2h1.8v1c0.4-0.7,1.1-1.2,1.9-1.2c0.2,0,0.3,0,0.5,0v1.7h-0.4c-0.8,0-1.5,0.3-1.9,1.1v4.5H57z"/>
	<path class="st1" d="M65,103.9h1.8v0.8c0.4-0.6,1.1-1,2-1c1.1,0,1.8,0.4,2.1,1.2c0.4-0.7,1.1-1.2,2.2-1.2c1.8,0,2.6,1.1,2.6,2.7
		v4.7h-1.8v-4.4c0-0.9-0.5-1.4-1.2-1.4c-0.7,0-1.1,0.5-1.4,1v4.8h-1.8v-4.4c0-0.9-0.5-1.4-1.2-1.4c-0.7,0-1.1,0.5-1.4,1v4.8H65
		V103.9z"/>
	<path class="st1" d="M77,109c0-1.4,1-2.3,2.6-2.3c0.7,0,1.3,0.2,1.8,0.6v-0.4c0-0.9-0.4-1.6-1.4-1.6c-0.8,0-1.3,0.4-1.6,0.7l-1-1.2
		c0.4-0.6,1.4-1.1,2.6-1.1c2.1,0,3.2,1.2,3.2,2.9v4.5h-1.7v-0.5c-0.5,0.5-1.2,0.7-1.9,0.7C78,111.3,77,110.3,77,109z M81.4,109.3
		v-0.7c-0.3-0.4-0.7-0.7-1.4-0.7c-0.9,0-1.2,0.5-1.2,1c0,0.5,0.3,1,1.2,1C80.7,110,81.2,109.7,81.4,109.3z"/>
	<path class="st1" d="M86.9,110.5c0,1.7-0.8,2.7-1.8,3.3l-1.1-1.2c0.6-0.5,1-1.1,1-2.2v-6.5h1.8V110.5z M85,101h2v1.8h-2V101z"/>
	<path class="st1" d="M95.6,107.5c0,2.2-1.4,3.8-3.6,3.8c-2.2,0-3.6-1.6-3.6-3.8c0-2.2,1.4-3.8,3.6-3.8
		C94.2,103.7,95.6,105.3,95.6,107.5z M93.7,107.5c0-1.3-0.5-2.3-1.7-2.3c-1.1,0-1.7,1-1.7,2.3s0.5,2.3,1.7,2.3
		C93.1,109.8,93.7,108.8,93.7,107.5z"/>
	<path class="st1" d="M97,111.1v-7.2h1.8v1c0.4-0.7,1.1-1.2,1.9-1.2c0.2,0,0.3,0,0.5,0v1.7h-0.4c-0.8,0-1.5,0.3-1.9,1.1v4.5H97z"/>
	<path class="st1" d="M101.8,107.5c0-2.4,1.6-3.8,3.5-3.8c1.9,0,3.3,1.5,3.3,3.5c0,0.2,0,0.5-0.1,0.7h-4.9c0.1,1.1,0.7,1.8,1.8,1.8
		c0.8,0,1.4-0.4,1.8-1l1.1,1c-0.8,1.1-1.8,1.6-3.1,1.6C103.3,111.3,101.8,109.8,101.8,107.5z M103.7,106.7h3.1
		c-0.1-1.1-0.7-1.6-1.5-1.6C104.4,105.2,103.8,105.7,103.7,106.7z M104.4,102.8L104.4,102.8l1.3-2.2h1.9v0l-1.7,2.1H104.4z"/>
	<path class="st1" d="M117.7,110.2c-0.5,0.6-1.2,1.1-2,1.1c-1.8,0-3.2-1.4-3.2-3.8c0-2.4,1.4-3.8,3.2-3.8c0.8,0,1.5,0.4,1.9,1v-3.5
		h1.8v9.9h-1.8V110.2z M117.7,108.7v-2.4c-0.3-0.7-0.9-1.1-1.5-1.1c-1,0-1.7,0.7-1.7,2.3c0,1.6,0.8,2.3,1.7,2.3
		C116.8,109.8,117.4,109.4,117.7,108.7z"/>
	<path class="st1" d="M121,107.5c0-2.4,1.6-3.8,3.5-3.8c1.9,0,3.3,1.5,3.3,3.5c0,0.2,0,0.5-0.1,0.7h-4.9c0.1,1.1,0.7,1.8,1.8,1.8
		c0.8,0,1.4-0.4,1.8-1l1.1,1c-0.8,1.1-1.8,1.6-3.1,1.6C122.5,111.3,121,109.8,121,107.5z M122.9,106.7h3.1c-0.1-1.1-0.7-1.6-1.5-1.6
		C123.6,105.2,123,105.7,122.9,106.7z"/>
	<path class="st1" d="M135.6,111.1h-1.8v-7.2l-1.8,1l-0.7-1.4l3-1.7h1.3V111.1z"/>
	<path class="st1" d="M146,103.4h-3.4l-0.2,1.6c0.3-0.1,0.6-0.2,1-0.2c1.6,0,3.1,1.1,3.1,3.2c0,1.8-1.4,3.3-3.5,3.3
		c-1.7,0-2.5-0.9-3-1.6l1.2-1.1c0.4,0.5,0.9,1.2,1.9,1.2c0.9,0,1.7-0.7,1.7-1.7c0-1-0.7-1.7-1.6-1.7c-0.6,0-0.9,0.2-1.3,0.5
		l-1.1-0.3l0.4-4.7h5V103.4z"/>
	<path class="st1" d="M147.7,106.5c0-3,1.3-4.8,3.6-4.8s3.6,1.8,3.6,4.8s-1.3,4.8-3.6,4.8S147.7,109.5,147.7,106.5z M153.1,106.5
		c0-2-0.5-3.2-1.8-3.2s-1.8,1.2-1.8,3.2s0.5,3.2,1.8,3.2S153.1,108.5,153.1,106.5z"/>
	<path class="st1" d="M156.2,106.5c0-3,1.3-4.8,3.6-4.8c2.3,0,3.6,1.8,3.6,4.8s-1.3,4.8-3.6,4.8
		C157.5,111.3,156.2,109.5,156.2,106.5z M161.6,106.5c0-2-0.5-3.2-1.8-3.2c-1.3,0-1.8,1.2-1.8,3.2s0.5,3.2,1.8,3.2
		C161.1,109.7,161.6,108.5,161.6,106.5z"/>
	<path class="st1" d="M165.2,106.1h-0.8v-1.2h0.9c0.4-2.2,1.8-3.2,3.5-3.2c1.2,0,2,0.5,2.6,1.4l-1.2,1c-0.4-0.6-0.9-0.9-1.5-0.9
		c-0.8,0-1.4,0.4-1.6,1.6h2.5v1.2h-2.7v0.4v0.4h2.7v1.2h-2.5c0.3,1.2,0.8,1.6,1.6,1.6c0.6,0,1.1-0.3,1.5-0.9l1.2,1
		c-0.6,0.9-1.5,1.4-2.6,1.4c-1.8,0-3.1-1-3.5-3.2h-0.9v-1.2h0.8v-0.4V106.1z"/>
	<path class="st1" d="M173.9,100.7l0.5,0.5c-0.7,0.7-1.2,1.6-1.2,3.1s0.4,2.4,1.2,3.1l-0.5,0.5c-0.8-0.6-1.7-1.7-1.7-3.6
		C172.2,102.4,173.2,101.2,173.9,100.7z"/>
	<path class="st1" d="M174.9,102.3c0.2-0.6,0.7-1.3,1.7-1.3c1.2,0,1.8,0.7,1.8,1.7c0,1.6-1.6,2.2-2.2,2.9h2.2v0.9h-3.5v-0.8
		c0.6-1.3,2.4-1.9,2.4-3c0-0.4-0.2-0.8-0.8-0.8c-0.4,0-0.7,0.3-0.8,0.7L174.9,102.3z"/>
	<path class="st1" d="M179.4,107.9l-0.5-0.5c0.7-0.7,1.2-1.6,1.2-3.1s-0.4-2.4-1.2-3.1l0.5-0.5c0.8,0.6,1.7,1.7,1.7,3.6
		C181.2,106.2,180.2,107.4,179.4,107.9z"/>
</g>
</svg>
