<svg width="768" height="102" viewBox="0 0 768 102" fill="none" xmlns="http://www.w3.org/2000/svg">
<path d="M0 0H768V102H0V0Z" fill="#002C5F"/>
<path d="M12 62.8092C15.4458 55.2354 26.0828 51.7464 26.0828 45.449C26.0828 42.7259 24.7345 40.258 21.2138 40.258C18.6669 40.258 17.0189 41.8749 16.1949 44.513L12.1498 41.96C13.1236 38.6412 15.8953 34.6415 21.4385 34.6415C27.7308 34.6415 31.3264 39.2368 31.3264 44.9385C31.3264 54.2993 21.5883 57.7033 18.9665 61.8731H31.8508V67.2343H12V62.8092Z" fill="white"/>
<path d="M56.9254 50.7079C56.9254 61.7052 52.0417 68.3208 44.3881 68.3208C40.0146 68.3208 36.8074 65.8292 35.1309 62.7362L38.6297 59.0418C39.7959 61.1897 41.9098 62.6503 44.3881 62.6503C48.1784 62.6503 51.0941 59.6432 51.6043 53.8009C49.9278 55.9488 47.6682 57.4094 44.5339 57.4094C39.3586 57.4094 34.9851 52.9417 34.9851 46.1543C34.9851 39.3669 39.7959 34.6415 45.6272 34.6415C53.0622 34.7274 56.9254 41.4289 56.9254 50.7079ZM40.2333 46.0684C40.2333 49.2473 42.2742 51.9107 45.5544 51.9107C48.8345 51.9107 50.8754 49.2473 50.8754 46.0684C50.8754 42.9754 48.8345 40.312 45.5544 40.312C42.2014 40.312 40.2333 42.9754 40.2333 46.0684Z" fill="white"/>
<path d="M82 50.7079C82 61.7052 77.1163 68.3208 69.4627 68.3208C65.0892 68.3208 61.882 65.8292 60.2055 62.7362L63.7043 59.0418C64.8706 61.1897 66.9844 62.6503 69.4627 62.6503C73.2531 62.6503 76.1687 59.6432 76.6789 53.8009C75.0024 55.9488 72.7428 57.4094 69.6085 57.4094C64.4332 57.4094 60.0597 52.9417 60.0597 46.1543C60.0597 39.3669 64.8706 34.6415 70.7019 34.6415C78.0639 34.7274 82 41.4289 82 50.7079ZM65.235 46.0684C65.235 49.2473 67.276 51.9107 70.5561 51.9107C73.8362 51.9107 75.8771 49.2473 75.8771 46.0684C75.8771 42.9754 73.8362 40.312 70.5561 40.312C67.276 40.312 65.235 42.9754 65.235 46.0684Z" fill="white"/>
<path d="M15.7778 13.9966H16.7963L19.5741 21.1698H18.5556L17.9074 19.3328H14.6667L14.0185 21.1698H13L15.7778 13.9966ZM14.7593 11.5472H15.7778L16.7037 13.1218H15.963L14.7593 11.5472ZM14.8519 18.5455H17.537L16.5185 15.7462C16.3333 15.3088 16.2407 14.9588 16.2407 14.7839C16.2407 14.9588 16.1481 15.3088 15.963 15.7462L14.8519 18.5455Z" fill="white"/>
<path d="M23 15.9211H23.8333V16.7084C24.2037 16.1835 24.8518 15.8336 25.5926 15.8336C27.0741 15.8336 28 16.9708 28 18.5455C28 20.1201 27.0741 21.2573 25.5926 21.2573C24.9444 21.2573 24.2963 20.9074 23.8333 20.47V23.0943H22.9074V15.9211H23ZM27.0741 18.5455C27.0741 17.3208 26.4259 16.5334 25.4074 16.5334C24.7593 16.5334 24.1111 16.8834 23.8333 17.4957V19.5952C24.1111 20.1201 24.6667 20.5575 25.4074 20.5575C26.4259 20.47 27.0741 19.7702 27.0741 18.5455Z" fill="white"/>
<path d="M29.0185 19.5077C29.0185 18.5455 29.8518 17.7582 31.0555 17.7582C31.6111 17.7582 32.1667 17.9331 32.6296 18.3705V17.8456C32.6296 17.0583 32.1667 16.5335 31.2407 16.5335C30.5926 16.5335 30.2222 16.7959 29.8518 17.1458L29.3889 16.5335C29.7592 16.0961 30.3148 15.7462 31.3333 15.7462C32.8148 15.7462 33.5555 16.5335 33.5555 17.7582V21.0823H32.6296V20.5575C32.2592 20.9949 31.6111 21.1698 31.0555 21.1698C29.8518 21.2573 29.0185 20.47 29.0185 19.5077ZM32.6296 19.8576V19.1578C32.3518 18.7204 31.7037 18.5455 31.2407 18.5455C30.3148 18.5455 29.9444 19.0703 29.9444 19.5952C29.9444 20.0326 30.3148 20.645 31.2407 20.645C31.7037 20.5575 32.2592 20.3825 32.6296 19.8576Z" fill="white"/>
<path d="M35.2222 15.9211H36.0556V16.8834C36.3334 16.271 36.8889 15.8336 37.7222 15.8336C37.8148 15.8336 37.9074 15.8336 38 15.8336V16.7084H37.7222C36.9815 16.7084 36.4259 17.0583 36.1482 17.8456V21.1698H35.2222V15.9211V15.9211Z" fill="white"/>
<path d="M39.4815 19.4202V16.6209H38.463V15.9211H39.4815V14.6089H40.3148V15.9211H41.5185V16.6209H40.3148V19.4202C40.3148 20.1201 40.6852 20.3825 41.4259 20.3825H41.6111V21.0823C41.5185 21.0823 41.3333 21.0823 41.2407 21.0823C40.1296 21.1698 39.4815 20.6449 39.4815 19.4202Z" fill="white"/>
<path d="M44.0186 13.6467V14.6964H42.9074V13.6467H44.0186ZM43.926 15.9211V21.0823H43V15.9211H43.926V15.9211Z" fill="white"/>
<path d="M45.6852 15.9211H46.5185V16.8834C46.7963 16.271 47.3519 15.8336 48.1852 15.8336C48.2778 15.8336 48.3704 15.8336 48.463 15.8336V16.7084H48.1852C47.4445 16.7084 46.8889 17.0583 46.6111 17.8456V21.1698H45.6852V15.9211V15.9211Z" fill="white"/>
<path d="M55.7778 20.3825C55.4074 20.9074 54.7593 21.2573 54.0186 21.2573C52.5371 21.2573 51.6111 20.1201 51.6111 18.5455C51.6111 16.9709 52.5371 15.8336 54.0186 15.8336C54.6667 15.8336 55.3148 16.1835 55.7778 16.6209V13.6467H56.7037V21.0823H55.7778V20.3825ZM55.6852 19.5077V17.4082C55.5 16.8834 54.8519 16.5335 54.2037 16.5335C53.1852 16.5335 52.5371 17.3208 52.5371 18.5455C52.5371 19.7702 53.1852 20.5575 54.2037 20.5575C54.8519 20.47 55.5 20.1201 55.6852 19.5077Z" fill="white"/>
<path d="M58.0926 18.5455C58.0926 16.8834 59.1111 15.8336 60.5926 15.8336C62.0741 15.8336 63 16.8834 63 18.3705C63 18.5455 63 18.6329 63 18.8079H59.1111C59.2037 19.8576 59.7593 20.5575 60.7778 20.5575C61.4259 20.5575 61.9815 20.295 62.3518 19.7702L62.9074 20.2075C62.537 20.8199 61.7963 21.2573 60.6852 21.2573C59.0185 21.2573 58.0926 20.2075 58.0926 18.5455ZM59.0185 18.0206H62.0741C61.9815 17.0583 61.4259 16.5334 60.5926 16.5334C59.7593 16.5334 59.2037 17.0583 59.0185 18.0206Z" fill="white"/>
<path d="M87 52.9652H88.4801C89.3682 49.6221 91.5143 47.544 94.3266 47.544C96.0287 47.544 97.5088 48.3572 98.6189 49.9835L97.0648 52.3327C96.3987 51.2485 95.5846 50.616 94.4006 50.616C92.9944 50.616 91.9584 51.4292 91.3663 53.0555H96.0287V55.7661H90.9223C90.9223 56.0372 90.9223 56.3083 90.9223 56.489C90.9223 56.76 90.9223 57.0311 90.9223 57.3021H96.0287V60.0127H91.4403C92.0324 61.6391 93.1425 62.3619 94.4746 62.3619C95.6586 62.3619 96.3987 61.7295 97.1388 60.6452L98.6929 62.9944C97.5828 64.6208 96.1027 65.434 94.4006 65.434C91.5883 65.434 89.4422 63.3558 88.5541 60.0127H87.074V57.3021H88.1101C88.1101 57.0311 88.1101 56.76 88.1101 56.489C88.1101 56.2179 88.1101 55.9468 88.1101 55.7661H87.074V52.9652H87Z" fill="white"/>
<path d="M105.649 47.8151H108.092L101.801 64.8919H99.4329L105.649 47.8151Z" fill="white"/>
<path d="M123.855 57.6636C123.855 55.5854 123.189 54.5012 121.561 54.5012C120.228 54.5012 119.488 55.5854 119.192 56.76V64.8918H116.602V57.6636C116.602 55.5854 115.862 54.5012 114.308 54.5012C112.976 54.5012 112.236 55.5854 111.94 56.76V64.8918H109.35V51.9713H111.94V53.7784C112.532 52.6038 113.568 51.7002 115.196 51.7002C116.972 51.7002 118.082 52.6038 118.6 54.1398C119.414 52.6038 120.599 51.7002 122.375 51.7002C125.113 51.7002 126.297 54.0494 126.297 57.3021V64.8918H123.707V57.6636H123.855Z" fill="white"/>
<path d="M128.221 58.4767C128.221 54.953 130.145 51.7002 133.846 51.7002C137.546 51.7002 139.47 54.953 139.47 58.4767C139.47 62.0005 137.546 65.2532 133.846 65.2532C130.145 65.2532 128.221 62.0005 128.221 58.4767ZM130.811 58.4767C130.811 60.9163 132.069 62.4523 133.772 62.4523C135.474 62.4523 136.732 60.9163 136.732 58.4767C136.732 56.1275 135.474 54.5012 133.772 54.5012C132.069 54.5012 130.811 56.0372 130.811 58.4767Z" fill="white"/>
<path d="M141.246 46.4597H143.91V49.8028H141.246V46.4597ZM141.32 51.9713H143.91V64.8918H141.32V51.9713Z" fill="white"/>
<path d="M145.464 62.7234L146.871 60.7356C147.537 61.8198 148.795 62.633 150.053 62.633C151.163 62.633 151.977 62.0909 151.977 61.097C151.977 60.2838 151.311 59.9224 150.349 59.6513L149.387 59.4706C147.389 59.1092 146.204 57.7539 146.204 55.5854C146.204 53.3266 147.759 51.5195 150.423 51.5195C152.125 51.5195 153.383 52.3327 154.123 53.5073L152.717 55.5854C152.051 54.6819 151.237 54.2301 150.275 54.2301C149.313 54.2301 148.795 54.7723 148.795 55.4951C148.795 56.1276 149.239 56.489 149.979 56.6697L150.941 56.8504C153.383 57.3021 154.567 58.6574 154.567 60.9163C154.567 63.2655 152.865 65.2533 149.905 65.2533C147.981 65.2533 146.5 64.169 145.464 62.7234Z" fill="white"/>
<path d="M158.341 59.1996C157.157 58.2057 155.677 56.2179 155.677 52.6941C155.677 49.1704 157.157 47.1826 158.341 46.1887L159.007 47.1826C157.823 48.4475 157.083 49.8932 157.083 52.6941C157.083 55.4951 157.897 56.9407 159.007 58.2057L158.341 59.1996Z" fill="white"/>
<path d="M161.154 48.7186L159.673 49.7125L159.081 48.2668L161.524 46.6404H162.634V56.5793H161.08V48.7186H161.154Z" fill="white"/>
<path d="M164.336 46.1887C165.52 47.1826 167 49.1704 167 52.6941C167 56.2179 165.52 58.2057 164.336 59.1996L163.67 58.2057C164.854 56.9407 165.594 55.4951 165.594 52.6941C165.594 49.8932 164.78 48.4475 163.67 47.1826L164.336 46.1887Z" fill="white"/>
<path d="M17.8483 84.5972H16.2374V78.7149L14.6265 79.5319L14 78.3881L16.6849 76.9992H17.8483V84.5972Z" fill="white"/>
<path d="M19.1012 79.1234C19.1012 77.9796 19.9067 77.326 20.8911 77.326C21.8756 77.326 22.5915 78.0613 22.5915 79.0417C22.5915 79.1234 22.5915 79.2868 22.5915 79.3685H20.0856C20.1751 79.8587 20.4436 80.1855 21.0701 80.1855C21.5176 80.1855 21.7861 80.0221 21.965 79.6953L22.5915 80.1855C22.144 80.6757 21.6966 80.9208 20.9806 80.9208C19.9067 80.8391 19.1012 80.1855 19.1012 79.1234ZM20.0856 78.7149H21.6966C21.6071 78.2247 21.3386 77.9796 20.8911 77.9796C20.5331 77.9796 20.1751 78.2247 20.0856 78.7149Z" fill="white"/>
<path d="M23.397 80.7574V77.3261H24.2919V77.8163C24.4709 77.4895 24.8289 77.2444 25.2764 77.2444C25.3659 77.2444 25.4554 77.2444 25.5449 77.2444V78.0613H25.3659C24.9184 78.0613 24.5604 78.143 24.3814 78.6332V80.7574H23.397V80.7574Z" fill="white"/>
<path d="M29.2141 76.5091H30.8251V84.5973H29.2141V76.5091V76.5091Z" fill="white"/>
<path d="M38.5217 81.6561C38.5217 83.4535 37.2688 84.7607 35.2999 84.7607C33.331 84.7607 32.078 83.4535 32.078 81.6561C32.078 79.8587 33.331 78.5515 35.2999 78.5515C37.3583 78.5515 38.5217 79.8587 38.5217 81.6561ZM36.9108 81.6561C36.9108 80.594 36.4633 79.777 35.3894 79.777C34.4049 79.777 33.868 80.594 33.868 81.6561C33.868 82.7182 34.3154 83.5352 35.3894 83.5352C36.3738 83.5352 36.9108 82.7182 36.9108 81.6561Z" fill="white"/>
<path d="M41.296 83.862L38.9691 78.7149H40.759L41.8329 81.411C42.0119 81.9012 42.1909 82.3914 42.1909 82.6365C42.1909 82.3097 42.3699 81.9829 42.5489 81.411L43.5333 78.7149H45.3233L41.9224 86.558H40.1325L41.296 83.862Z" fill="white"/>
<path d="M45.5917 81.6561C45.5917 79.6953 47.0237 78.5515 48.7241 78.5515C50.4245 78.5515 51.6774 79.777 51.6774 81.411C51.6774 81.5744 51.6774 81.8195 51.5879 81.9829H47.2026C47.2921 82.8816 47.8291 83.4535 48.8136 83.4535C49.5295 83.4535 50.0665 83.1267 50.4245 82.6365L51.4089 83.4535C50.693 84.3522 49.798 84.7607 48.6346 84.7607C46.9342 84.7607 45.5917 83.5352 45.5917 81.6561ZM47.2921 81.0025H50.0665C49.977 80.1038 49.44 79.6953 48.7241 79.6953C47.9186 79.777 47.4711 80.1855 47.2921 81.0025Z" fill="white"/>
<path d="M52.9304 84.5973V78.7149H54.5413V79.5319C54.8993 78.96 55.5257 78.5515 56.2417 78.5515C56.4207 78.5515 56.5102 78.5515 56.6892 78.5515V79.9404H56.3312C55.6152 79.9404 54.9888 80.1855 54.6308 80.8391V84.5156H52.9304V84.5973Z" fill="white"/>
<path d="M60.09 78.7149H61.7009V79.3685C62.0589 78.8783 62.6853 78.5515 63.4908 78.5515C64.4752 78.5515 65.1017 78.8783 65.3702 79.5319C65.7282 78.96 66.3546 78.5515 67.3391 78.5515C68.95 78.5515 69.6659 79.4502 69.6659 80.7574V84.5973H68.055V81.0025C68.055 80.2672 67.6076 79.8587 66.9811 79.8587C66.3546 79.8587 65.9966 80.2672 65.7282 80.6757V84.5973H64.1172V81.0025C64.1172 80.2672 63.6698 79.8587 63.0433 79.8587C62.4168 79.8587 62.0589 80.2672 61.7904 80.6757V84.5973H60.09V78.7149Z" fill="white"/>
<path d="M70.8294 82.8816C70.8294 81.7378 71.7243 81.0025 73.1563 81.0025C73.7827 81.0025 74.3197 81.1659 74.7672 81.4927V81.1659C74.7672 80.4306 74.4092 79.8587 73.5142 79.8587C72.7983 79.8587 72.3508 80.1855 72.0823 80.4306L71.1874 79.4502C71.5454 78.96 72.4403 78.5515 73.5142 78.5515C75.3936 78.5515 76.3781 79.5319 76.3781 80.9208V84.5973H74.8567V84.1888C74.4092 84.5973 73.7827 84.7607 73.1563 84.7607C71.7243 84.7607 70.8294 83.9437 70.8294 82.8816ZM74.7672 83.1267V82.5548C74.4987 82.228 74.1407 81.9829 73.5142 81.9829C72.7088 81.9829 72.4403 82.3914 72.4403 82.7999C72.4403 83.2084 72.7088 83.6169 73.5142 83.6169C74.1407 83.6986 74.5882 83.4535 74.7672 83.1267Z" fill="white"/>
<path d="M79.6894 84.1071C79.6894 85.4959 78.9734 86.3129 78.0785 86.8031L77.094 85.8227C77.631 85.4142 77.989 84.924 77.989 84.0254V78.7149H79.5999V84.1071H79.6894ZM77.989 76.3456H79.7789V77.8162H77.989V76.3456Z" fill="white"/>
<path d="M87.4755 81.6561C87.4755 83.4535 86.2225 84.7607 84.2537 84.7607C82.2848 84.7607 81.0318 83.4535 81.0318 81.6561C81.0318 79.8587 82.2848 78.5515 84.2537 78.5515C86.2225 78.5515 87.4755 79.8587 87.4755 81.6561ZM85.7751 81.6561C85.7751 80.594 85.3276 79.777 84.2537 79.777C83.2692 79.777 82.7322 80.594 82.7322 81.6561C82.7322 82.7182 83.1797 83.5352 84.2537 83.5352C85.2381 83.5352 85.7751 82.7182 85.7751 81.6561Z" fill="white"/>
<path d="M88.7284 84.5973V78.7149H90.3393V79.5319C90.6973 78.96 91.3238 78.5515 92.0397 78.5515C92.2187 78.5515 92.3082 78.5515 92.4872 78.5515V79.9404H92.1292C91.4133 79.9404 90.7868 80.1855 90.4288 80.8391V84.5156H88.7284V84.5973Z" fill="white"/>
<path d="M93.0242 81.6561C93.0242 79.6953 94.4561 78.5515 96.1565 78.5515C97.8569 78.5515 99.1098 79.777 99.1098 81.411C99.1098 81.5744 99.1098 81.8195 99.0203 81.9829H94.6351C94.7246 82.8816 95.2615 83.4535 96.246 83.4535C96.962 83.4535 97.4989 83.1267 97.8569 82.6365L98.8414 83.4535C98.1254 84.3522 97.2304 84.7607 96.067 84.7607C94.3666 84.7607 93.0242 83.5352 93.0242 81.6561ZM94.7246 81.0025H97.4989C97.4094 80.1038 96.8725 79.6953 96.1565 79.6953C95.351 79.777 94.8141 80.1855 94.7246 81.0025ZM95.351 77.8162L96.5145 76.0189H98.2149L96.6935 77.7345H95.351V77.8162Z" fill="white"/>
<path d="M107.254 83.862C106.806 84.3522 106.18 84.7607 105.464 84.7607C103.853 84.7607 102.6 83.6169 102.6 81.6561C102.6 79.6953 103.853 78.5515 105.464 78.5515C106.18 78.5515 106.806 78.8783 107.164 79.3685V76.5091H108.775V84.5973H107.164V83.862H107.254ZM107.254 82.6365V80.6757C106.985 80.1038 106.448 79.777 105.911 79.777C105.017 79.777 104.39 80.3489 104.39 81.6561C104.39 82.9633 105.106 83.5352 105.911 83.5352C106.448 83.5352 106.985 83.2084 107.254 82.6365Z" fill="white"/>
<path d="M110.207 81.6561C110.207 79.6953 111.639 78.5515 113.34 78.5515C115.04 78.5515 116.293 79.777 116.293 81.411C116.293 81.5744 116.293 81.8195 116.203 81.9829H111.818C111.908 82.8816 112.445 83.4535 113.429 83.4535C114.145 83.4535 114.682 83.1267 115.04 82.6365L116.024 83.4535C115.308 84.3522 114.414 84.7607 113.25 84.7607C111.55 84.7607 110.207 83.5352 110.207 81.6561ZM111.908 81.0025H114.682C114.593 80.1038 114.056 79.6953 113.34 79.6953C112.534 79.777 111.997 80.1855 111.908 81.0025Z" fill="white"/>
<path d="M123.274 84.5973H121.663V78.7149L120.052 79.5319L119.425 78.3881L122.11 76.9993H123.274V84.5973Z" fill="white"/>
<path d="M132.581 78.3064H129.538L129.359 79.6136C129.628 79.5319 129.896 79.4502 130.254 79.4502C131.686 79.4502 133.029 80.3489 133.029 82.0646C133.029 83.5352 131.776 84.7606 129.896 84.7606C128.375 84.7606 127.659 84.0254 127.211 83.4535L128.285 82.5548C128.643 82.9633 129.091 83.5352 129.986 83.5352C130.791 83.5352 131.507 82.9633 131.507 82.1463C131.507 81.3293 130.881 80.7574 130.075 80.7574C129.538 80.7574 129.27 80.9208 128.912 81.1659L127.927 80.9208L128.285 77.0809H132.76V78.3064H132.581Z" fill="white"/>
<path d="M134.102 80.8391C134.102 78.3881 135.266 76.9175 137.324 76.9175C139.383 76.9175 140.546 78.3881 140.546 80.8391C140.546 83.2901 139.383 84.7607 137.324 84.7607C135.266 84.7607 134.102 83.2901 134.102 80.8391ZM138.935 80.8391C138.935 79.2051 138.488 78.2247 137.324 78.2247C136.161 78.2247 135.713 79.2051 135.713 80.8391C135.713 82.4731 136.161 83.4535 137.324 83.4535C138.488 83.4535 138.935 82.4731 138.935 80.8391Z" fill="white"/>
<path d="M141.71 80.8391C141.71 78.3881 142.873 76.9175 144.931 76.9175C146.99 76.9175 148.153 78.3881 148.153 80.8391C148.153 83.2901 146.99 84.7607 144.931 84.7607C142.873 84.7607 141.71 83.2901 141.71 80.8391ZM146.542 80.8391C146.542 79.2051 146.095 78.2247 144.931 78.2247C143.768 78.2247 143.32 79.2051 143.32 80.8391C143.32 82.4731 143.768 83.4535 144.931 83.4535C146.095 83.4535 146.542 82.4731 146.542 80.8391Z" fill="white"/>
<path d="M149.764 80.5123H149.048V79.5319H149.854C150.212 77.7345 151.464 76.9175 152.986 76.9175C154.06 76.9175 154.776 77.326 155.313 78.0613L154.239 78.8783C153.881 78.3881 153.433 78.143 152.896 78.143C152.18 78.143 151.643 78.4698 151.464 79.4502H153.702V80.4306H151.285V80.7574V81.0842H153.702V82.0646H151.464C151.733 83.045 152.18 83.3718 152.896 83.3718C153.433 83.3718 153.881 83.1267 154.239 82.6365L155.313 83.4535C154.776 84.1888 153.97 84.5973 152.986 84.5973C151.375 84.5973 150.212 83.7803 149.854 81.9829H149.048V81.0025H149.764V80.6757V80.5123Z" fill="white"/>
<path d="M157.55 76.1006L157.998 76.5091C157.371 77.0809 156.924 77.8162 156.924 79.0417C156.924 80.2672 157.282 81.0025 157.998 81.5744L157.55 81.9829C156.834 81.4927 156.029 80.594 156.029 79.0417C156.029 77.4894 156.924 76.5091 157.55 76.1006Z" fill="white"/>
<path d="M158.445 77.4077C158.624 76.9175 159.072 76.3456 159.967 76.3456C161.04 76.3456 161.577 76.9175 161.577 77.7345C161.577 79.0417 160.146 79.5319 159.609 80.1038H161.577V80.8391H158.445V80.1855C158.982 79.1234 160.593 78.6332 160.593 77.7345C160.593 77.4077 160.414 77.0809 159.877 77.0809C159.519 77.0809 159.251 77.326 159.161 77.6528L158.445 77.4077Z" fill="white"/>
<path d="M162.472 81.9829L162.025 81.5744C162.651 81.0025 163.099 80.2672 163.099 79.0417C163.099 77.8162 162.741 77.0809 162.025 76.5091L162.472 76.1006C163.188 76.5907 163.994 77.4894 163.994 79.0417C164.083 80.594 163.188 81.5744 162.472 81.9829Z" fill="white"/>
</svg>
