<?xml version="1.0" encoding="utf-8"?>
<!-- Generator: Adobe Illustrator 25.1.0, SVG Export Plug-In . SVG Version: 6.00 Build 0)  -->
<svg version="1.1" xmlns="http://www.w3.org/2000/svg" xmlns:xlink="http://www.w3.org/1999/xlink" x="0px" y="0px"
	 viewBox="0 0 132.5 34.4" style="enable-background:new 0 0 132.5 34.4;" xml:space="preserve">
<style type="text/css">
	.st0{fill:none;}
	.st1{fill:#002861;}
	.st2{fill:#FFFFFF;}
</style>
<g id="Calque_2">
</g>
<g id="Calque_1">
	<g>
		<g>
			<g>
				<rect x="38.9" y="0.7" class="st0" width="92.8" height="32.9"/>
			</g>
			<g>
				<path class="st1" d="M38.9,0h-8.8H0v34.4h30.1h8.8h93.6V0H38.9z M38.9,0.7h92.8v32.9H38.9"/>
			</g>
		</g>
		<g>
			<rect x="38.9" y="0.7" class="st2" width="92.8" height="32.9"/>
		</g>
		<g>
			<g>
				<path class="st1" d="M43.7,16.6h2.8V29h-2.8V16.6z"/>
			</g>
			<g>
				<path class="st1" d="M50.7,16.6h2.8v9.9h5.7V29h-8.5V16.6z"/>
			</g>
			<g>
				<path class="st1" d="M62.5,16.6h2.8v9.9h5.7V29h-8.5V16.6z"/>
			</g>
			<g>
				<path class="st1" d="M74.3,16.6h2.8V29h-2.8V16.6z"/>
			</g>
			<g>
				<path class="st1" d="M81.3,16.6h3.8l3.2,8.7l3.2-8.7h3.8V29h-2.8v-8l-2.9,8h-2.5l-2.9-8v8h-2.8V16.6z"/>
			</g>
			<g>
				<path class="st1" d="M99.6,16.6h2.8V29h-2.8V16.6z"/>
			</g>
			<g>
				<path class="st1" d="M109.3,19.1h-3.7v-2.5h10.1v2.5h-3.7V29h-2.8V19.1z"/>
			</g>
			<g>
				<path class="st1" d="M119,16.6h8.9v2.5h-6.1v2.4h5.2v2.5h-5.2v2.6h6.1V29H119V16.6z M122.3,15.4l1.4-2.8h2.7v0.1l-1.7,2.8
					L122.3,15.4L122.3,15.4z"/>
			</g>
		</g>
		<g>
			<g>
				<path class="st1" d="M43.6,7.7c0-1.4,1-2.5,2.5-2.5c1,0,1.7,0.4,2.1,1.1L47.4,7c-0.3-0.4-0.7-0.7-1.3-0.7
					c-0.8,0-1.4,0.6-1.4,1.5c0,0.8,0.5,1.5,1.4,1.5c0.4,0,0.8-0.1,1-0.2V8.3h-1V7.4h2v2.1c-0.5,0.4-1.3,0.7-2.1,0.7
					C44.7,10.2,43.6,9.2,43.6,7.7z"/>
			</g>
			<g>
				<path class="st1" d="M50.2,5.4h1.3l1.8,4.7h-1.1l-0.3-0.9h-2l-0.3,0.9h-1.1L50.2,5.4z M50.2,8.2h1.3l-0.6-1.8L50.2,8.2z"/>
			</g>
			<g>
				<path class="st1" d="M55.4,8.2h-0.6v1.8h-1.1V5.4h2.2c0.9,0,1.6,0.6,1.6,1.4c0,0.7-0.4,1.2-1,1.4l1.4,1.9v0h-1.3L55.4,8.2z
					 M55.8,7.3c0.4,0,0.6-0.2,0.6-0.5c0-0.3-0.2-0.5-0.6-0.5h-1v1H55.8z"/>
			</g>
			<g>
				<path class="st1" d="M59.7,5.4H61l1.8,4.7h-1.1l-0.3-0.9h-2L59,10.1h-1.1L59.7,5.4z M59.7,8.2H61l-0.6-1.8L59.7,8.2z"/>
			</g>
			<g>
				<path class="st1" d="M63.2,5.4h0.9l2.4,2.9V5.4h1.1v4.7h-0.9l-2.4-2.9v2.9h-1.1V5.4z"/>
			</g>
			<g>
				<path class="st1" d="M69.5,6.3h-1.4V5.4H72v0.9h-1.4v3.8h-1.1V6.3z"/>
			</g>
			<g>
				<path class="st1" d="M72.5,5.4h1.1v4.7h-1.1V5.4z"/>
			</g>
			<g>
				<path class="st1" d="M74.5,5.4H78v0.9h-2.3v0.9h2v0.9h-2v1H78v0.9h-3.4V5.4z"/>
			</g>
			<g>
				<path class="st1" d="M80.1,5.4h1.1v2.1l1.7-2.1h1.3v0l-1.7,2l1.8,2.7v0H83l-1.2-1.9l-0.6,0.7v1.2h-1.1V5.4z"/>
			</g>
			<g>
				<path class="st1" d="M84.6,5.4h1.1v4.7h-1.1V5.4z"/>
			</g>
			<g>
				<path class="st1" d="M86.6,5.4h1.1v3.8h2.2v0.9h-3.3V5.4z"/>
			</g>
			<g>
				<path class="st1" d="M90,7.7c0-1.4,1-2.5,2.4-2.5c1.4,0,2.4,1,2.4,2.5s-1,2.5-2.4,2.5C91,10.2,90,9.2,90,7.7z M93.7,7.7
					c0-0.8-0.5-1.5-1.3-1.5c-0.8,0-1.3,0.6-1.3,1.5c0,0.8,0.5,1.5,1.3,1.5C93.3,9.2,93.7,8.6,93.7,7.7z"/>
			</g>
			<g>
				<path class="st1" d="M95.5,5.4H97l1.2,3.3l1.2-3.3h1.5v4.7h-1.1V7l-1.1,3.1h-1L96.6,7v3.1h-1.1V5.4z"/>
			</g>
			<g>
				<path class="st1" d="M101.8,5.4h3.4v0.9h-2.3v0.9h2v0.9h-2v1h2.3v0.9h-3.4V5.4z M103,4.9l0.5-1.1h1.1v0L104,4.9L103,4.9L103,4.9
					z"/>
			</g>
			<g>
				<path class="st1" d="M107,6.3h-1.4V5.4h3.9v0.9h-1.4v3.8H107V6.3z"/>
			</g>
			<g>
				<path class="st1" d="M111.6,8.2h-0.6v1.8H110V5.4h2.2c0.9,0,1.6,0.6,1.6,1.4c0,0.7-0.4,1.2-1,1.4l1.4,1.9v0H113L111.6,8.2z
					 M112.1,7.3c0.4,0,0.6-0.2,0.6-0.5c0-0.3-0.2-0.5-0.6-0.5h-1v1H112.1z"/>
			</g>
			<g>
				<path class="st1" d="M116,5.4h1.3l1.8,4.7h-1.1l-0.3-0.9h-2l-0.3,0.9h-1.1L116,5.4z M116,8.2h1.3l-0.6-1.8L116,8.2z"/>
			</g>
			<g>
				<path class="st1" d="M119.1,7.7c0-1.4,1-2.5,2.5-2.5c1,0,1.7,0.4,2.1,1.1L122.9,7c-0.3-0.4-0.7-0.7-1.3-0.7
					c-0.8,0-1.4,0.6-1.4,1.5c0,0.8,0.5,1.5,1.4,1.5c0.4,0,0.8-0.1,1-0.2V8.3h-1V7.4h2v2.1c-0.5,0.4-1.3,0.7-2.1,0.7
					C120.1,10.2,119.1,9.2,119.1,7.7z"/>
			</g>
			<g>
				<path class="st1" d="M124.4,5.4h3.4v0.9h-2.3v0.9h2v0.9h-2v1h2.3v0.9h-3.4V5.4z"/>
			</g>
		</g>
		<g>
			<g>
				<path class="st2" d="M6.1,26.2l3.3-4.1c1.2,1.4,3.2,3,6.3,3c2.8,0,4.8-1.5,4.8-3.9c0-2.1-1.8-3.6-4.3-3.6
					c-1.8,0-3.2,0.6-4.3,1.2l-3.7-1.2L9.6,3.9h16.6l-2.8,5.2h-8.7l-0.4,3.5c0.8-0.2,1.7-0.3,2.6-0.3c5.3,0,9.7,2.9,9.7,9
					c0,6-4.3,9.3-10.8,9.3C11.1,30.5,7.9,28.1,6.1,26.2z"/>
			</g>
		</g>
		<g>
			<path class="st2" d="M31.8,9.3h1.9l0.3,0.9h1.5l-2-5.3h-1.6l-2,5.3h1.5L31.8,9.3z M32.3,8.1l0.5-1.2l0.5,1.2H32.3z"/>
			<polygon class="st2" points="33.7,17.3 31.5,14.5 30.3,14.5 30.3,19.8 31.7,19.8 31.7,17 34,19.8 35.2,19.8 35.2,14.5 33.7,14.5 
							"/>
			<path class="st2" d="M33.1,25.9l-0.4-0.1c-0.2,0-0.4-0.1-0.4-0.3c0-0.1,0.2-0.3,0.5-0.3c0.4,0,0.7,0.2,1,0.5l0.1,0.1l0.9-1
				l-0.1-0.1c-0.4-0.5-1.2-0.8-1.9-0.8c-1.2,0-2,0.7-2,1.7c0,0.8,0.6,1.5,1.7,1.6l0.4,0.1c0.6,0.1,0.6,0.3,0.6,0.4
				c0,0.2-0.2,0.4-0.6,0.4c-0.7,0-1.1-0.4-1.4-0.8l-0.1-0.2l-0.9,1l0.1,0.1c0.5,0.8,1.3,1.2,2.3,1.2c1.3,0,2.1-0.7,2.1-1.8
				C34.9,26.7,34.2,26.1,33.1,25.9z"/>
		</g>
	</g>
</g>
</svg>
