<svg width="20" height="20" viewBox="0 0 20 20" fill="none" xmlns="http://www.w3.org/2000/svg">
<path d="M10 1.59998C7.77219 1.59998 5.63561 2.48497 4.06031 4.06028C2.485 5.63558 1.60001 7.77216 1.60001 9.99998C1.60001 12.2278 2.485 14.3644 4.06031 15.9397C5.63561 17.515 7.77219 18.4 10 18.4C12.2278 18.4 14.3644 17.515 15.9397 15.9397C17.515 14.3644 18.4 12.2278 18.4 9.99998C18.4 7.77216 17.515 5.63558 15.9397 4.06028C14.3644 2.48497 12.2278 1.59998 10 1.59998V1.59998ZM14.789 13.061L13.06 14.79L10 11.729L6.93901 14.789L5.21001 13.06L8.27201 9.99998L5.21101 6.93898L6.94001 5.21098L10 8.27098L13.061 5.20998L14.79 6.93898L11.728 9.99998L14.789 13.061Z" fill="black"/>
</svg>
